<?xml version="1.0" standalone="no"?>
<!DOCTYPE svg PUBLIC "-//W3C//DTD SVG 1.1//EN" "http://www.w3.org/Graphics/SVG/1.1/DTD/svg11.dtd" >
<svg xmlns="http://www.w3.org/2000/svg">
  <metadata>Created by iconfont</metadata>
  <defs>
  <font id="iconfont" horiz-adv-x="1024">
    <font-face
      font-family="iconfont"
      font-weight="400"
      font-stretch="normal"
      units-per-em="1024"
      ascent="896"
      descent="-128"
    />
      <missing-glyph />
      
      <glyph glyph-name="chatou" unicode="&#58910;" d="M455.111111 782.222222c0 34.133333-22.755556 56.888889-56.888889 56.888889s-56.888889-22.755556-56.888889-56.888889v-170.666666h113.777778V782.222222zM739.555556 782.222222c0 34.133333-22.755556 56.888889-56.888889 56.888889s-56.888889-22.755556-56.888889-56.888889v-170.666666h113.777778V782.222222zM284.444444 554.666667v-341.333334c0-96.711111 73.955556-170.666667 170.666667-170.666666H398.222222v-56.888889l56.888889-56.888889v-56.888889h170.666667v56.888889l56.888889 56.888889v56.888889h-56.888889c96.711111 0 170.666667 73.955556 170.666666 170.666666V554.666667H284.444444z m227.555556-398.222223v170.666667H455.111111l113.777778 170.666667v-170.666667h56.888889l-113.777778-170.666667z"  horiz-adv-x="1024" />
      
      <glyph glyph-name="danweiGDPeryanghuatanpaifangjiangdi" unicode="&#58935;" d="M823.6544 550.7072c88.1152-0.7168 100.6592 5.12 148.992-46.8992 85.0432 32.5632 45.2608 173.4144-49.5616 150.8864 9.0112 63.9488-107.008 185.7536-207.9744 46.5408 2.8672-1.28 114.6368-48.2816 108.544-150.528zM847.7696 491.52l7.2192-3.0208c112.64-47.0528 173.4656-148.48 168.3456-259.7376-5.12-106.9568-70.7072-199.68-169.5744-224.6656l-5.12-1.28-711.68 0.5632-6.656 2.2528C62.8736 28.4672 8.8576 109.5168 1.3312 196.1984c-8.8576 101.888 44.544 193.9968 157.952 247.296l7.5776 3.584 18.0224 0.9216c49.1008 168.192 168.96 265.5232 308.5312 265.3184 130.4576 0 242.5344-87.04 276.1216-219.1872l78.2336-2.6624z m-141.5168-78.1824l-5.12 37.376c-16.0768 115.1488-104.0896 190.6176-208.7424 190.8224-112.0768 0-209.2032-84.6848-245.1456-242.6368l-7.5264-33.1264-67.6352-3.4816C92.416 322.0992 59.136 262.2464 65.024 194.56c4.7616-54.8352 36.7616-105.728 69.12-121.088l719.6672-0.6144c60.3648 18.0224 102.4 79.0016 105.6256 152.2688 3.584 77.9264-36.5568 147.6096-114.6368 183.296l-138.5472 4.7104z m0 0M377.856 146.432c-36.6592 0-64.5632 11.8272-82.8416 35.1232C279.3472 201.216 271.36 227.9936 271.36 261.12s8.2432 59.6992 24.576 79.9744c18.5344 23.4496 46.08 35.3792 81.3056 35.3792 26.1632 0 47.9744-6.9632 64.8704-20.736a83.3536 83.3536 0 0 0 29.696-54.1184l0.8704-5.9392h-43.6736l-0.9728 3.8912a44.3904 44.3904 0 0 1-17.7152 27.4944 57.8048 57.8048 0 0 1-33.6384 8.6528c-20.48 0-35.84-6.7584-46.08-20.48-9.5744-12.5952-14.4384-30.72-14.4384-53.8624s4.7616-42.0352 14.08-54.4256 25.9072-19.5584 47.2064-19.5584a55.296 55.296 0 0 1 33.9456 9.9328 60.5184 60.5184 0 0 1 19.456 33.3312l0.9728 3.84H476.16l-1.1264-6.0928a99.1744 99.1744 0 0 0-35.0208-61.1328 96.4608 96.4608 0 0 0-62.1568-20.8384zM596.2752 146.432c-33.792 0-60.8256 11.1104-80.2816 33.1264-18.3808 20.7872-27.648 48.2816-27.648 81.6128s9.0112 60.8256 27.648 81.92c19.0976 22.1696 46.08 33.4336 80.2816 33.4336s60.7744-11.1616 80.2816-33.1264c18.5344-20.48 27.9552-48.384 27.9552-82.2272s-9.4208-61.44-27.9552-81.92c-19.6096-21.8112-46.7968-32.8192-80.2816-32.8192z m0 189.44c-20.48 0-35.84-6.656-47.0016-20.48s-16.0256-30.72-16.0256-54.2208 5.12-40.6528 16.0256-53.9648 26.6752-20.0192 47.0016-20.0192 35.84 6.4512 46.7968 19.2 16.2304 31.4368 16.2304 54.784-5.4784 42.0864-16.3328 55.4496-26.0096 19.1488-46.6944 19.1488zM721.1008 156.5696v5.12a51.2 51.2 0 0 0 13.1072 35.0208 162.6624 162.6624 0 0 0 28.2624 22.6304 105.4208 105.4208 0 0 1 15.36 12.6464 23.2448 23.2448 0 0 1 6.4 15.36 14.4384 14.4384 0 0 1-3.5328 10.8032 18.2272 18.2272 0 0 1-11.9808 3.2256 14.08 14.08 0 0 1-12.3904-5.376 32.1024 32.1024 0 0 1-5.12-18.3296v-5.12H721.92v5.12a50.7904 50.7904 0 0 0 13.056 35.584 44.6976 44.6976 0 0 0 34.7136 14.592 46.5408 46.5408 0 0 0 31.8976-11.264 38.4 38.4 0 0 0 12.6976-29.6448 46.3872 46.3872 0 0 0-12.9536-31.5904 153.0368 153.0368 0 0 0-25.6-19.968 101.0688 101.0688 0 0 1-14.8992-11.6224H814.08v-27.392z"  horiz-adv-x="1024" />
      
      <glyph glyph-name="pingshi" unicode="&#58900;" d="M768.8 102.11H225.14V635.83c0 16.61 13.44 30.06 30.06 30.06s30.06-13.44 30.06-30.06v-473.6H768.8c16.61 0 30.06-13.44 30.06-30.06s-13.44-30.06-30.06-30.06zM542.65 406.08m-78.12 0a78.12 78.12 0 1 1 156.24 0 78.12 78.12 0 1 1-156.24 0ZM422.1 376.08h-93.3c-16.57 0-30 13.43-30 30s13.43 30 30 30h93.3c16.57 0 30-13.43 30-30s-13.43-30-30-30zM753.98 376.08h-93.3c-16.57 0-30 13.43-30 30s13.43 30 30 30h93.3c16.57 0 30-13.43 30-30s-13.43-30-30-30z"  horiz-adv-x="1024" />
      
      <glyph glyph-name="fengshi" unicode="&#58901;" d="M768.8 102.11H225.14V635.83c0 16.61 13.44 30.06 30.06 30.06s30.06-13.44 30.06-30.06v-473.6H768.8c16.61 0 30.06-13.44 30.06-30.06s-13.44-30.06-30.06-30.06zM700.35 231.01c-16.61 0-30.06 13.44-30.06 30.06 0 89.47-15.5 161.33-44.79 207.8-8.86 14.03-4.67 32.58 9.39 41.45 14 8.81 32.58 4.64 41.45-9.39 35.87-56.89 54.07-137.58 54.07-239.85 0-16.63-13.44-30.07-30.06-30.07zM362.93 231.01c-16.61 0-30.06 13.44-30.06 30.06 0 98.22 16.79 176.62 49.93 233.1 8.37 14.32 26.77 19.14 41.13 10.71 14.32-8.4 19.11-26.8 10.71-41.13-27.24-46.47-41.65-116.54-41.65-202.69-0.01-16.61-13.45-30.05-30.06-30.05zM531.63 544.41m-78.12 0a78.12 78.12 0 1 1 156.24 0 78.12 78.12 0 1 1-156.24 0Z"  horiz-adv-x="1024" />
      
      <glyph glyph-name="gushi" unicode="&#58902;" d="M768.8 102.11H225.14V635.83c0 16.61 13.44 30.06 30.06 30.06s30.06-13.44 30.06-30.06v-473.6H768.8c16.61 0 30.06-13.44 30.06-30.06s-13.44-30.06-30.06-30.06zM372.93 606.53c16.61 0 30.06-13.44 30.06-30.06 0-89.47 15.5-161.33 44.79-207.8 8.86-14.03 4.67-32.58-9.39-41.45-14-8.81-32.58-4.64-41.45 9.39-35.87 56.89-54.07 137.58-54.07 239.85 0 16.63 13.44 30.07 30.06 30.07zM710.35 606.53c16.61 0 30.06-13.44 30.06-30.06 0-98.22-16.79-176.62-49.93-233.1-8.37-14.32-26.77-19.14-41.13-10.71-14.32 8.4-19.11 26.8-10.71 41.13 27.24 46.47 41.65 116.54 41.65 202.69 0 16.61 13.45 30.05 30.06 30.05zM541.65 293.13m-78.12 0a78.12 78.12 0 1 1 156.24 0 78.12 78.12 0 1 1-156.24 0Z"  horiz-adv-x="1024" />
      
      <glyph glyph-name="bifa" unicode="&#58952;" d="M164.821 117.38300000000004c-6.726 0-12.237 5.164-12.008 11.713V265.047c0 6.571 5.283 11.723 12.008 11.723 148.962 65.493 262.504 98.241 340.628 98.241 74.225 0 189.197-32.748 344.927-98.241 6.955 0 12.477-5.401 12.477-12.182v-135.023c0-6.788-5.522-12.181-12.477-12.181H164.821z m420.211 280.496l22.259 47.711c63.329-15.871 140.731-43.041 232.169-81.495 6.955 0 12.477-5.391 12.477-12.191v-38.805c-109.407 41.74-198.552 69.661-267.462 83.807l0.469 0.994 0.088-0.021z m-114.775 3.512c-72.435-12.094-167.334-41.412-284.696-87.955v38.936c0 6.571 5.283 11.723 12.005 11.723 124.742 54.839 224.65 86.722 299.718 95.641l-26.636-56.903 0.308 0.056-0.699-1.498z m100.967 183.576a109.163 109.163 0 0 1 27.573-18.37 108.744 108.744 0 0 1 43.409-10.217l-76.274-163.578c-22.507 3.765-42.671 5.654-60.473 5.654-7.191-0.01-14.382-0.263-21.557-0.765l87.322 187.276z m181.861 54.206c-25.485-54.642-90.421-78.275-145.063-52.806-54.633 25.486-78.275 90.434-52.8 145.064 25.465 54.655 90.414 78.275 145.067 52.823 54.633-25.489 78.275-90.438 52.787-145.067l0.009-0.014z m-0.01 0.013"  horiz-adv-x="1024" />
      
      <glyph glyph-name="kaifa" unicode="&#58953;" d="M165.282 117.38300000000004c-6.955 0-12.477 5.393-12.477 12.181V264.587c0 6.781 5.522 12.182 12.477 12.182 155.731 65.493 270.702 98.241 344.927 98.241 78.124 0 191.666-32.748 340.628-98.241 6.726 0 12.008-5.152 12.008-11.723v-135.951c0.229-6.549-5.283-11.713-12.008-11.713H165.282z m265.432 280.516l0.469-0.994c-68.91-14.146-158.055-42.067-267.462-83.807v38.805c0 6.8 5.522 12.191 12.477 12.191 91.437 38.454 168.84 65.624 232.169 81.495l22.259-47.711 0.088 0.021z m113.988 4.99l0.308-0.056-26.636 56.903c75.068-8.919 174.976-40.802 299.718-95.641 6.722 0 12.005-5.152 12.005-11.723v-38.936c-117.362 46.544-212.261 75.862-284.696 87.955l-0.699 1.498z m-12.946-5.198a315.164 315.164 0 0 1-21.557 0.765c-17.802 0-37.966-1.889-60.473-5.654L373.452 556.38c15.018 0.37 29.8 3.849 43.409 10.217a109.146 109.146 0 0 1 27.573 18.37l87.322-187.276zM262.582 639.1859999999999c-25.488 54.629-1.846 119.578 52.787 145.067 54.653 25.452 119.602 1.832 145.067-52.823 25.475-54.629 1.832-119.578-52.8-145.064-54.642-25.469-119.578-1.836-145.063 52.806l0.009 0.014z m0 0"  horiz-adv-x="1024" />
      
      <glyph glyph-name="jieruguanli" unicode="&#59241;" d="M489.1648 496.384a31.6416 31.6416 0 0 0 0-44.7488l-66.56-66.56 89.5488-89.4976 66.56 66.56a31.6416 31.6416 0 1 0 44.7488-44.7488l-66.56-66.56 67.1232-67.1232-88.9344-88.9344c-78.3872-78.4384-201.6256-84.9408-288.3072-19.8144L156.416-15.36a31.6416 31.6416 0 1 0-44.7488 44.7488l90.3168 90.368c-65.0752 86.7328-58.5728 209.92 19.8144 288.256L310.784 497.0496 377.856 429.824l66.56 66.56a31.6416 31.6416 0 0 0 44.7488 0z m420.4544 287.9488a31.6416 31.6416 0 0 0 0-44.7488l-68.096-68.1984c65.0752-86.6816 58.5728-209.8688-19.8144-288.256l-88.9344-88.9344-313.2928 313.344L508.416 696.3712c78.3872 78.3872 201.6256 84.8896 288.3072 19.7632l68.096 68.1472a31.6416 31.6416 0 0 0 44.8 0z"  horiz-adv-x="1024" />
      
      <glyph glyph-name="xuanze-kong" unicode="&#58929;" d="M512.000128-127.997696c-69.119672 0-136.703351 13.311937-199.679052 39.93581-60.927711 25.599878-115.71145 62.463703-162.815226 109.56748a507.082391 507.082391 0 0 0-109.56748 162.815226A511.229572 511.229572 0 0 0 0.00256 383.999872c0 69.119672 13.311937 136.703351 39.93581 199.679052 25.599878 60.927711 62.463703 115.71145 109.56748 162.815226C196.609626 793.597926 251.393366 830.461751 312.321076 856.06163A511.229572 511.229572 0 0 0 512.000128 895.99744c69.119672 0 136.703351-13.311937 199.679052-39.93581 60.927711-25.599878 115.71145-62.463703 162.815226-109.56748 47.103776-47.103776 83.967601-101.887516 109.56748-162.815226A511.229572 511.229572 0 0 0 1023.997696 383.999872c0-69.119672-13.311937-136.703351-39.93581-199.679052-25.599878-60.927711-62.463703-115.71145-109.56748-162.815226a507.082391 507.082391 0 0 0-162.815226-109.56748A511.229572 511.229572 0 0 0 512.000128-127.997696z m0 954.363467C268.289286 826.365771 69.634229 628.222712 69.634229 383.999872c0-243.710842 198.143059-442.365899 442.365899-442.365899 243.710842 0 442.365899 198.143059 442.365899 442.365899 0 243.710842-198.655056 442.365899-442.365899 442.365899z"  horiz-adv-x="1024" />
      
      <glyph glyph-name="xuanze-xian" unicode="&#59298;" d="M512 877.714286C239.725714 877.714286 18.285714 656.274286 18.285714 384s221.44-493.714286 493.714286-493.714286 493.714286 221.44 493.714286 493.714286S784.274286 877.714286 512 877.714286z m0-914.285715C280.137143-36.571429 91.428571 152.137143 91.428571 384S280.137143 804.571429 512 804.571429s420.571429-188.708571 420.571429-420.571429-188.708571-420.571429-420.571429-420.571429zM512 384m-256 0a256 256 0 1 1 512 0 256 256 0 1 1-512 0Z"  horiz-adv-x="1024" />
      
      <glyph glyph-name="guangzhaoduchuanganqi" unicode="&#58950;" d="M763.7504 397.568c0 149.8624-120.9856 272.0256-269.4656 272.0256S224.768 547.4304 224.768 397.568c0-149.8624 120.9856-272.0256 269.4656-272.0256s269.4656 122.1632 269.4656 272.0256z m-476.0064 0c0 114.688 92.2624 207.872 205.9264 207.872s205.9264-93.184 205.9264-207.872c0-114.688-92.2624-207.872-205.9264-207.872-113.0496 0-205.9264 93.184-205.9264 207.872zM901.2224 394.496a31.744 31.744 0 0 1-31.744 32.0512 31.744 31.744 0 0 1-31.744-32.0512c0-184.4224-148.48-334.9504-331.8272-334.9504a31.744 31.744 0 0 1-31.7952-32.0512c0-17.92 14.08-32.1024 31.744-32.1024 218.1632 0.6144 395.3664 179.5072 395.3664 399.104zM1023.488 394.496a31.744 31.744 0 0 1-31.7952 32.0512 31.744 31.744 0 0 1-31.744-32.0512c0-252.928-203.52-458.2912-454.0416-458.2912a31.744 31.744 0 0 1-31.7952-32.1024c0-17.8688 14.08-32.0512 31.744-32.0512 285.3888 0 517.632 234.3936 517.632 522.4448zM710.6048 659.712a32.8704 32.8704 0 0 1 0-45.6192c12.1856-12.3392 32.3584-12.9536 44.5952 0l86.784 86.9376a31.6928 31.6928 0 0 1 0 45.056c-12.8 12.288-32.4096 12.9536-44.5952 0l-86.784-86.3744zM276.736 136.704a31.6928 31.6928 0 0 1 0 45.0048 30.976 30.976 0 0 1-44.5952 0l-86.784-87.04a32.8704 32.8704 0 0 1 0-45.568c12.2368-12.3392 32.4096-13.0048 44.5952 0l86.784 87.552zM277.9648 664.064L191.7952 751.616a30.976 30.976 0 0 1-44.5952 0 32.8704 32.8704 0 0 1 0-45.6192l86.1696-87.6032c12.1856-12.3392 32.3584-12.9536 44.5952 0a32.9728 32.9728 0 0 1 0 45.6192zM186.3168 402.4832a31.744 31.744 0 0 1-31.744 32.1024L32.256 435.2a31.744 31.744 0 0 1-31.744-32.1024c0-17.8688 14.0288-32.0512 31.744-32.0512l122.2144-0.6144a31.744 31.744 0 0 1 31.744 32.0512zM461.312 740.5056a31.744 31.744 0 1 1 63.5392 0l0.6144 123.392a31.744 31.744 0 0 1-31.7952 32.0512 31.744 31.744 0 0 1-31.744-32.0512l-0.6656-123.392z"  horiz-adv-x="1024" />
      
      <glyph glyph-name="jinzhi" unicode="&#58964;" d="M512 883.375342C235.660274 883.375342 11.221918 657.534247 11.221918 382.59726c0-276.339726 224.438356-500.778082 500.778082-500.778082 276.339726 0 500.778082 224.438356 500.778082 500.778082C1012.778082 657.534247 788.339726 883.375342 512 883.375342z m0-70.136986c106.608219 0 203.39726-39.276712 277.742466-102.4L183.758904 103.452055c-64.526027 75.747945-102.4 172.536986-102.4 277.742466 0 238.465753 193.578082 432.043836 430.641096 432.043835z m0-861.282192c-106.608219 0-203.39726 39.276712-277.742466 102.4l605.983562 605.983562c64.526027-75.747945 102.4-172.536986 102.4-277.742466 0-238.465753-193.578082-430.641096-430.641096-430.641096z"  horiz-adv-x="1024" />
      
      <glyph glyph-name="zonghe" unicode="&#59083;" d="M957.496889 534.129778c2.446222-11.946667 4.096-24.120889 5.632-36.352h-115.541333l-0.056889 0.568889A170.382222 170.382222 0 0 0 682.666667 668.444444c0 21.276444 4.380444 41.415111 11.491555 60.188445a338.602667 338.602667 0 0 1-315.335111 26.624L300.430222 843.662222A453.006222 453.006222 0 0 0 512 896c95.516444 0 184.092444-29.582222 257.308444-79.872C794.225778 830.350222 822.613333 839.111111 853.333333 839.111111a170.666667 170.666667 0 0 0 170.666667-170.666667c0-54.840889-26.339556-103.082667-66.503111-134.314666z m-780.458667-35.726222C173.795556 479.630222 170.666667 460.686222 170.666667 440.888889c0-111.502222 54.272-209.578667 136.931555-271.872l-37.660444-113.038222A454.314667 454.314667 0 0 0 56.888889 440.888889c0 31.914667 3.584 62.976 9.841778 93.070222A169.585778 169.585778 0 0 0 0 668.444444a170.666667 170.666667 0 1 0 341.333333 0 170.382222 170.382222 0 0 0-164.295111-170.040888zM512 213.333333c61.098667 0 114.289778-32.369778 144.440889-80.668444C772.494222 187.164444 853.333333 304.241778 853.333333 440.888889h113.777778a454.997333 454.997333 0 0 0-286.890667-422.627556A170.211556 170.211556 0 0 0 512-128a170.666667 170.666667 0 1 0 0 341.333333z"  horiz-adv-x="1024" />
      
      <glyph glyph-name="export" unicode="&#58898;" d="M739.556 178.57399999999996h71.11c70.43 0 128 55.467 128 123.278 0 63.66-52.053 117.476-118.613 121.572l-65.251 4.551-12.857 61.61C720.213 595.173 623.787 671.63 512 671.63c-87.893 0-167.253-46.876-207.758-122.026l-21.334-39.083-45.681-4.494c-86.585-8.647-151.894-78.905-151.894-163.1 0-90.795 76.345-164.41 170.667-164.41h29.013v-82.147H256c-141.198 0-256 110.535-256 246.556 0 126.92 99.84 231.652 228.295 244.85C281.6 686.421 388.665 753.778 512 753.778c155.307 0 284.558-106.382 313.572-248.15C936.505 498.233 1024 410.283 1024 301.852c0-113.436-95.573-205.482-213.333-205.482h-71.111V178.63z m-56.89 0h-108.77v219.08H450.161v-219.137H341.333L512 14.22199999999998l170.667 164.352z"  horiz-adv-x="1024" />
      
      <glyph glyph-name="zhedie" unicode="&#60418;" d="M378.88 473.09l614.4 1e-8c5.632 0 10.24 4.583 10.24 10.18299999l0 71.272c0 5.59999999-4.608 10.182-10.24 10.182l-614.4 0c-5.632 0-10.24-4.582-10.24-10.182l0-71.272c0-5.59999999 4.608-10.182 10.24-10.182z m-10.24-259.635c0-5.59999999 4.608-10.182 10.24-10.182l614.4 0c5.632 0 10.24 4.582 10.24 10.182l0 71.272c0 5.59999999-4.608 10.182-10.24 10.182l-614.4 0c-5.632 0-10.24-4.582-10.24-10.182l0-71.272zM1013.76 832L10.24 832C4.608 832 0 827.418 0 821.818l0-71.273c0-5.59999999 4.608-10.181 10.24-10.181l1003.52 0c5.632 0 10.23999999 4.581 10.24 10.181L1024 821.818c0 5.59999999-4.608 10.182-10.24 10.182z m0-804.364L10.24 27.635999999999967c-5.632 0-10.23999999-4.581-10.24-10.181l0-71.273C0-59.418000000000006 4.608-64 10.24-64l1003.52 0c5.632 0 10.24 4.582 10.24 10.182l0 71.273c0 5.59999999-4.608 10.181-10.24 10.181zM38.912 218.418l200.064 156.673c5.76 4.454 5.76 13.10899999 0 17.69l-200.064 156.8c-7.424 5.855-18.432 0.637-18.432-8.781l0-313.473c0-9.41800001 10.88-14.763 18.432-8.909z"  horiz-adv-x="1024" />
      
      <glyph glyph-name="unzhedie" unicode="&#58895;" d="M645.12 294.90999999999997l-614.4-1e-8c-5.632 0-10.24-4.583-10.24-10.18299999l0-71.272c0-5.59999999 4.608-10.182 10.24-10.182l614.4 0c5.632 0 10.24 4.582 10.24 10.182l0 71.272c0 5.59999999-4.608 10.182-10.24 10.182z m10.24 259.635c0 5.59999999-4.608 10.182-10.24 10.182l-614.4 0c-5.632 0-10.24-4.582-10.24-10.182l0-71.272c0-5.59999999 4.608-10.182 10.24-10.182l614.4 0c5.632 0 10.24 4.582 10.24 10.182l0 71.272zM10.24-64L1013.76-64C1019.392-64 1024-59.418000000000006 1024-53.817999999999984l0 71.273c0 5.59999999-4.608 10.181-10.24 10.181l-1003.52 0c-5.632 0-10.23999999-4.581-10.24-10.181L0-53.817999999999984c0-5.59999999 4.608-10.182 10.24-10.182z m0 804.364L1013.76 740.364c5.632 0 10.23999999 4.581 10.24 10.181l0 71.273C1024 827.418 1019.392 832 1013.76 832l-1003.52 0c-5.632 0-10.24-4.582-10.24-10.182l0-71.273c0-5.59999999 4.608-10.181 10.24-10.181zM985.088 549.582l-200.064-156.673c-5.76-4.454-5.76-13.10899999 0-17.69l200.064-156.8c7.424-5.855 18.432-0.637 18.432 8.781l0 313.473c0 9.41800001-10.88 14.763-18.432 8.909z"  horiz-adv-x="1024" />
      
      <glyph glyph-name="qianshou" unicode="&#58892;" d="M374.634 771.122a124.878 124.878 0 1 0 249.756 0h124.878v-124.878H274.732V771.122h99.902z m-249.756 0h99.403v-174.83H799.22v174.83h99.902V-128H124.878V771.122z m374.634-49.951a49.951 49.951 0 1 1 0 99.902 49.951 49.951 0 0 1 0-99.902z m-154.1-443.118l-45.43-35.79 178.75-170.083s75.727 154.05 245.36 303.228l-40.11 45.88s-95.457-92.51-210.57-220.809l-128 77.574z"  horiz-adv-x="1024" />
      
      <glyph glyph-name="Dollar" unicode="&#60416;" d="M512 832C264.6 832 64 631.4 64 384s200.6-448 448-448 448 200.6 448 448S759.4 832 512 832z m0-820c-205.4 0-372 166.6-372 372s166.6 372 372 372 372-166.6 372-372-166.6-372-372-372z m47.7 395.2l-25.4 5.9V547.4c38-5.2 61.5-29 65.5-58.2 0.5-4 3.9-6.9 7.9-6.9h44.9c4.7 0 8.4 4.1 8 8.8-6.1 62.3-57.4 102.3-125.9 109.2V633c0 4.4-3.6 8-8 8h-28.1c-4.4 0-8-3.6-8-8v-33c-70.8-6.9-126.2-46-126.2-119 0-67.6 49.8-100.2 102.1-112.7l24.7-6.3v-142.7c-44.2 5.9-69 29.5-74.1 61.3-0.6 3.8-4 6.6-7.9 6.6H363c-4.7 0-8.4-4-8-8.7 4.5-55 46.2-105.6 135.2-112.1V135c0-4.4 3.6-8 8-8h28.4c4.4 0 8 3.6 8 8.1l-0.2 31.7c78.3 6.9 134.3 48.8 134.3 124-0.1 69.4-44.2 100.4-109 116.4z m-68.6 16.2c-5.6 1.6-10.3 3.1-15 5-33.8 12.2-49.5 31.9-49.5 57.3 0 36.3 27.5 57 64.5 61.7v-124zM534.3 219V352.7c3.1-0.9 5.9-1.6 8.8-2.2 47.3-14.4 63.2-34.4 63.2-65.1 0-39.1-29.4-62.6-72-66.4z"  horiz-adv-x="1024" />
      
      <glyph glyph-name="alarm" unicode="&#59210;" d="M173.16 92.30999999999995c0-33.19 27-60.2 60.19-60.2h557.49c33.2 0 60.2 27.01 60.2 60.2V318.6c0 186.9-152.05 338.94-338.94 338.94S173.16 505.5 173.16 318.6v-226.29z m58.23 226.29c0 154.79 125.93 280.71 280.71 280.71S792.81 473.39 792.81 318.6v-226.29c0-1.11-0.86-1.97-1.97-1.97H379.15V237.55999999999995c0 15.42-12.5 27.92-27.92 27.92h-2.4c-15.42 0-27.92-12.5-27.92-27.92v-147.22h-87.57c-1.12 0-1.96 0.84-1.96 1.97V318.6zM843.26-2.8999999999999773H180.93c-15.42 0-27.92-12.5-27.92-27.92v-2.4c0-15.42 12.5-27.92 27.92-27.92h662.33c15.42 0 27.92 12.5 27.92 27.92v2.4c0 15.42-12.5 27.92-27.92 27.92zM512.33 705.37c16.08 0 29.11 13.04 29.11 29.11V799.76c0 16.08-13.04 29.11-29.11 29.11-16.08 0-29.11-13.04-29.11-29.11v-65.27c0-16.08 13.03-29.12 29.11-29.12zM216.6 619.21c11.36-11.36 29.78-11.36 41.14 0s11.36 29.78 0 41.14l-46.19 46.19c-11.36 11.36-29.78 11.36-41.14 0s-11.36-29.78 0-41.14l46.19-46.19zM808.05 618.88l46.2 46.2c11.36 11.36 11.36 29.77 0 41.13s-29.77 11.36-41.13 0l-46.2-46.2c-11.36-11.36-11.36-29.77 0-41.13 11.35-11.35 29.77-11.35 41.13 0z"  horiz-adv-x="1024" />
      
      <glyph glyph-name="sim" unicode="&#59486;" d="M219.934596 163.012933h291.845905c41.390689 0 75.063603 33.672914 75.063603 75.066673V529.924487c0 41.391712-33.67189 75.063603-75.063603 75.063603H219.934596c-41.390689 0-75.063603-33.672914-75.063603-75.063603v-291.844881c0-41.393759 33.672914-75.066673 75.063603-75.066673z m-22.783912 366.911554c0 12.56313 10.220782 22.784936 22.783912 22.784936h291.845905c12.565177 0 22.783913-10.220782 22.783912-22.784936v-291.844881c0-12.56313-10.217712-22.782889-22.783912-22.782889H219.934596c-12.56313 0-22.783913 10.218736-22.783912 22.782889V529.924487zM414.355611 242.734626c14.435781 0 26.139334 11.704576 26.139333 26.143427v19.721157h29.108969c14.435781 0 26.139334 11.704576 26.139333 26.136263 0 14.43885-11.704576 26.13831-26.139333 26.138311H440.495968V499.122971c0 14.435781-11.704576 26.139334-26.139334 26.139333-14.43885 0-26.139334-11.704576-26.139333-26.139333V268.884193c-0.001023-14.44499 11.700483-26.149567 26.13831-26.149567zM260.373611 409.533536h29.108968V268.884193c0-14.43885 11.704576-26.143427 26.139333-26.143427s26.139334 11.704576 26.139334 26.143427V499.122971c0 14.435781-11.704576 26.139334-26.139334 26.139333s-26.139334-11.704576-26.139333-26.139333v-37.309744H260.373611c-14.435781 0-26.139334-11.701506-26.139334-26.139334-0.001023-14.435781 11.703553-26.140357 26.139334-26.140357zM1014.543116 541.970848L806.609343 738.020966a26.13524 26.13524 0 0 1-17.933441 7.120164H150.92078c-33.492812 0-65.214281-10.745738-91.737354-31.080879-25.65838-19.669992-44.630477-47.547923-53.428864-78.503958-3.944845-13.887288 4.113691-28.342512 17.996887-32.288381 13.890358-3.946892 28.343535 4.110621 32.29145 17.99791 11.979846 42.154076 50.993394 71.591525 94.877881 71.591525h627.375727l192.177927-181.187619V173.757648c0-54.381561-44.23855-98.621135-98.626251-98.621135H150.919756c-54.378491 0-98.620112 44.239574-98.620111 98.621135V543.800519c0 14.435781-11.704576 26.139334-26.139334 26.139334s-26.139334-11.704576-26.139333-26.139334v-370.040824c0-83.208097 67.693752-150.899802 150.899802-150.899802h720.927403c83.207074 0 150.899802 67.691705 150.899802 150.899802v349.193007a26.14138 26.14138 0 0 1-8.204869 19.018146z"  horiz-adv-x="1024" />
      
      <glyph glyph-name="fenzu" unicode="&#58912;" d="M136.533333 261.753905C136.533333 328.411429 169.935238 414.086095 229.571048 516.437333c23.747048 40.706438 51.326781 83.412114 81.978514 127.405105A2906.199771 2906.199771 0 0 0 429.173029 800.416914a2774.250057 2774.250057 0 0 0 49.659123 60.172191l3.969219 4.632381L507.240838 893.366857l24.517486-28.145371 3.959466-4.642134c3.140267-3.666895 6.787657-7.9872 10.942172-12.873142a3313.176381 3313.176381 0 0 0 38.785219-47.289296 2940.362362 2940.362362 0 0 0 117.613714-156.574476c30.593219-43.99299 58.172952-86.698667 81.92-127.405105 59.63581-102.351238 93.037714-188.025905 93.037715-254.683428 0-210.690438-165.800229-381.834971-370.775772-381.834972C302.343314-120.081067 136.533333 51.063467 136.533333 261.753905m343.186286 497.566476a2801.859048 2801.859048 0 0 1-114.922057-153.102629c-29.696-42.569143-56.32-83.792457-79.160076-122.958019-54.203733-92.94019-84.085029-169.662171-84.085029-221.505828 0-174.947962 137.069714-316.386743 305.688381-316.386743 168.686933 0 305.7664 141.438781 305.7664 316.386743 0 51.843657-29.891048 128.565638-84.094781 221.505828-22.840076 39.165562-49.464076 80.388876-79.091809 122.958019a2869.150476 2869.150476 0 0 1-114.93181 153.112381 4546.998857 4546.998857 0 0 1-27.648 33.811505c-8.572343-10.435048-17.788343-21.7088-27.511467-33.811505M507.270095-6.397562c-142.833371 0-258.6624 116.90179-258.6624 261.246781 0 144.286476 134.456076 71.241143 258.6624 0 124.781714-71.553219 258.6624 144.286476 258.6624 0 0-144.335238-115.829029-261.246781-258.6624-261.246781"  horiz-adv-x="1024" />
      
      <glyph glyph-name="chaobiao" unicode="&#60417;" d="M923.8 666.2l-113.00000001-113.4-110.19999999 20-19.8 110.2 113 113.4c-25.4 25.4-61.6 36.99999999-88.4 35.6-27-1.4-84.6-16.6-129.2-64-43.2-45.6-88.6-130.6-48.4-225 4.8-11.40000001 10.2-26.4-5.8-42.4-16.2-15.99999999-430-405.6-430-405.6-38.8-33.4-36-95.2-0.2-131.2 36.4-35.8 97.8-38.00000001 131.2 0.6 0 0 386.4 411.60000001 405.4 430.2 17 16.6 32.2 11 42.4 5.8 71.2-36.8 172.6-4.8 225.2 47.8 52.6 52.6 62.2 103.39999999 63.8 129.4C961.4 603.4 952.4 637.59999999 923.8 666.2zM182.6 9.600000000000023c-12.6-12.4-33-12.4-45.39999999 0-12.4 12.6-12.4 33-1e-8 45.4 12.6 12.4 33 12.4 45.4 0C195 42.39999999999998 194.99999999 22 182.6 9.600000000000023z"  horiz-adv-x="1024" />
      
      <glyph glyph-name="jiedian" unicode="&#58965;" d="M511.636 182.659c-110.562 0-200.613 90.051-200.613 200.613s90.051 200.613 200.613 200.613 200.613-89.93 200.613-200.613-89.93-200.613-200.613-200.613z m0 334.355c-73.789 0-133.742-59.953-133.742-133.742S437.969 249.53 511.636 249.53s133.742 59.953 133.742 133.742-59.953 133.742-133.742 133.742zM971.844 343.222H717.59c-21.967 0-40.05 18.083-40.05 40.05v0.121c0 22.088 18.083 40.05 40.05 40.05h254.255c22.088 0 40.05-17.962 40.05-40.05v-0.121c0-22.088-17.962-40.05-40.05-40.05z m-666.161 0H51.428c-22.089 0-40.05 18.083-40.05 40.05v0.121c0 22.088 17.961 40.05 40.05 40.05h254.255c21.967 0 40.05-17.962 40.05-40.05v-0.121c0-22.088-17.962-40.05-40.05-40.05z"  horiz-adv-x="1024" />
      
      <glyph glyph-name="setup" unicode="&#58915;" d="M229.8 795.8l113.4-113.00000001-20-110.19999999-110.2-19.8-113.4 113c-25.4-25.4-36.99999999-61.6-35.6-88.4 1.4-27 16.6-84.6 64-129.2 45.6-43.2 130.6-88.6 225-48.4 11.40000001 4.8 26.4 10.2 42.4-5.8 15.99999999-16.2 405.6-430 405.6-430 33.4-38.8 95.2-36 131.2-0.2 35.8 36.4 38.00000001 97.8-0.6 131.2 0 0-411.60000001 386.4-430.2 405.4-16.6 17-11 32.2-5.8 42.4 36.8 71.2 4.8 172.6-47.8 225.2-52.6 52.6-103.39999999 62.2-129.4 63.8C292.6 833.4 258.40000001 824.4 229.8 795.8zM886.4 54.60000000000002c12.4-12.6 12.4-33 0-45.39999999-12.6-12.4-33-12.4-45.4-1e-8-12.4 12.6-12.4 33 0 45.4C853.6 67 874 66.99999998999999 886.4 54.60000000000002z"  horiz-adv-x="1024" />
      
      <glyph glyph-name="spot" unicode="&#59006;" d="M620.544 492.544c-29.696 30.72-66.56 45.056-108.544 45.056s-78.848-14.336-109.568-45.056C373.76 462.848 358.4 425.984 358.4 384s15.36-78.848 44.032-108.544c30.72-29.696 67.584-45.056 109.568-45.056s78.848 15.36 108.544 45.056c30.72 29.696 45.056 66.56 45.056 108.544s-14.336 78.848-45.056 108.544z"  horiz-adv-x="1024" />
      
      <glyph glyph-name="tongzhi" unicode="&#58916;" d="M676.992-54.496H329.216a36.8 36.8 0 0 1-37.216-36.416c0-20.128 16.64-36.448 37.216-36.448h347.776a36.8 36.8 0 0 1 37.184 36.448 36.8 36.8 0 0 1-37.184 36.416zM924.832 126.528l-68.32 117.632c-19.648 46.464-84.288 38.528-76.64-5.92 0.64-1.568 1.088-3.2 1.92-4.64l83.936-144.672a30.944 30.944 0 0 1 2.656-3.84H136.736l86.08 148.48c3.04 5.12 4.608 11.04 4.608 17.056v210.656c0 101.312 80.384 206.368 187.648 244.544a356.032 356.032 0 0 0 58.24 13.76 261.568 261.568 0 0 0 57.472 0c17.568-2.368 38.272-7.328 62.72-15.168 104.736-38.88 183.68-143.392 183.68-243.136v-113.408c1.856-32.32 65.024-35.648 70.4 0v113.408c0 61.568-22.72 126.4-64 182.432C748.8 690.88 702.08 728.736 649.44 754.56c-1.6 77.888-66.496 140.8-146.368 140.8-79.52 0-144.16-62.4-146.272-139.84a366.56 366.56 0 0 1-134.496-110.112c-42.08-56.512-65.248-121.888-65.248-184.096v-201.568l-83.36-143.68a65.824 65.824 0 0 1 0.224-66.656 68.576 68.576 0 0 1 58.976-33.248H873.184c37.632 0 68.256 29.952 68.256 66.752a65.6 65.6 0 0 1-16.608 43.648zM503.072 830.592c34.816 0 64.32-21.888 75.52-52.256a421.408 421.408 0 0 1-150.88 0.544 80.416 80.416 0 0 0 75.36 51.712z"  horiz-adv-x="1024" />
      
      <glyph glyph-name="zhinengjiaju" unicode="&#59378;" d="M558.522217 756.43335V882.707938c0 7.157264-4.089865 13.292062-8.690964 13.292062H473.657514c-5.112332 0-8.690964-6.134798-8.690964-13.292062V756.43335C228.265602 732.405392 49.333999 524.844733 49.333999 285.076385v-7.668497c0-14.314528 11.758362-25.561658 25.561658-25.561657h200.914628c21.983025-109.915127 119.117324-192.734898 235.678482-192.734898s213.695457 82.81977 235.678482 192.734898h200.914628c14.314528 0 25.561658 11.247129 25.561658 25.561657v20.960559c0 238.234648-182.510235 434.548178-415.121318 458.064903z m-47.03345-603.76635c-64.415377 0-119.117324 41.409885-138.544184 99.179231H650.032951c-19.42686-57.769346-74.128807-99.179231-138.544184-99.179231zM836.121817 103.077384c-6.134798 5.623565-15.848228 5.623565-21.471792-0.511233l-43.966051-45.499751c-5.623565-6.134798-5.623565-15.848228 0.511233-21.471792l46.522217-44.477284c6.134798-5.623565 15.848228-5.623565 21.471792 0.511233l43.966051 45.499751c5.623565 6.134798 5.623565 15.848228-0.511233 21.471792l-46.522217 44.477284zM202.192711 102.566151c-6.134798 5.623565-15.848228 5.623565-21.471792-0.511233l-50.100849-52.145782c-5.623565-6.134798-5.623565-15.848228 0.511233-21.471792l46.010984-43.454818c6.134798-5.623565 15.848228-5.623565 21.471792 0.511233l50.100849 52.145782c5.623565 6.134798 5.623565 15.848228-0.511234 21.471792l-46.010983 43.454818zM530.915627-32.910634H467.522716c-8.17973 0-15.336995-6.646031-15.336995-15.336995v-63.39291c0-8.17973 6.646031-15.336995 15.336995-15.336995h63.392911c8.17973 0 15.336995 6.646031 15.336994 15.336995v63.39291c0 8.690964-7.157264 15.336995-15.336994 15.336995z"  horiz-adv-x="1024" />
      
      <glyph glyph-name="nengyuan1" unicode="&#58894;" d="M767.488 64c-0.512 0-1.536 0.512-2.048 0.512-17.408 0.512-31.232 15.36-30.72 32.768s15.36 31.232 32.768 30.72c16.896 0 30.208-13.312 31.744-29.696 0-0.512 0.512-1.536 0.512-2.048 0-17.92-14.336-32.256-32.256-32.256m128.512 288.256c0 158.72-96.768 294.4-234.496 352.768l-19.968-60.928c112.128-49.664 190.464-161.792 190.464-291.84 0-57.344-15.36-113.152-44.544-162.304-52.224 10.752-102.912-22.528-113.664-74.752-2.56-12.8-2.56-26.112 0-38.912 4.608-21.504 16.384-40.448 33.28-54.272 16.384-13.312 37.376-22.016 60.416-22.016 52.736 0 96.256 43.008 96.256 96.256 0 22.016-7.68 43.52-22.016 60.416 35.328 58.88 54.272 126.464 54.272 195.584M258.56 64.51199999999994c-1.024 0-1.536-0.512-2.048-0.512-17.92 0-32.256 14.336-32.256 32.256 0 1.024 0.512 1.536 0.512 2.048 1.024 16.896 14.848 29.696 31.744 29.696 17.408 0.512 32.256-13.312 32.768-30.72 0.512-17.408-13.312-32.256-30.72-32.768z m383.488-4.096c-0.512-0.512-1.024-0.512-1.536-1.024-40.448-17.92-83.968-27.648-128.512-27.648-56.832 0-112.64 15.36-161.792 44.544 10.752 52.224-22.528 102.912-74.752 113.664-12.8 2.56-26.112 2.56-38.912 0-21.504-4.608-40.448-16.384-54.272-33.792-14.336-16.896-22.016-38.4-22.016-60.416 0-52.736 43.008-96.256 96.256-96.256 23.04 0 44.032 8.704 60.416 22.016 58.88-35.328 126.464-53.76 195.072-53.76 45.056 0 88.064 8.192 128.512 22.528 10.24 3.584 19.968 7.68 29.696 12.288l-28.16 57.856zM512 672.256c-17.92 1.024-31.232 15.872-30.72 33.28 0.512 16.384 13.824 29.696 30.72 30.72 17.92 0 32.256-14.336 32.256-32.256s-14.336-31.744-32.256-31.744m93.696 51.712c-9.216 44.544-48.64 76.288-93.696 76.288-45.568 0-84.48-31.744-93.696-76.288C251.904 681.984 128 531.456 128 352.256c0-45.056 8.192-88.064 22.528-128.512 3.584-10.24 8.192-20.48 12.8-30.208l57.344 28.672c-0.512 0.512-0.512 1.536-1.024 2.048-17.92 40.448-27.136 83.968-27.648 128.512C192 499.2 291.84 623.104 427.008 660.48c16.384-31.744 49.152-52.224 84.992-52.224s68.608 20.48 84.992 52.224c6.656 13.312 11.264 28.16 11.264 43.52 0 6.656-1.024 13.312-2.56 19.968M668.16 392.192c-2.56 5.12-8.192 8.192-13.824 8.192l-148.48 0.512 21.504 156.16c1.024 7.68-3.584 14.848-10.24 17.408-7.168 2.56-14.848-0.512-18.944-6.656l-142.848-238.08c-4.608-7.68-2.048-17.408 5.632-22.016 2.56-1.536 5.12-2.048 8.192-2.048l152.576 0.512-28.16-157.696c-1.536-8.704 4.096-16.896 12.8-18.432 6.656-1.024 13.312 2.048 16.384 7.68l144.896 238.592c3.072 4.608 3.072 10.752 0.512 15.872M768.512 96.25599999999997m-67.072 0a67.072 67.072 0 1 1 134.144 0 67.072 67.072 0 1 1-134.144 0Z"  horiz-adv-x="1024" />
      
      <glyph glyph-name="wulianwangshebei" unicode="&#59426;" d="M139.2 234.89999999999998c46.9-45.5 108.9-70.5 174.7-70.5h15.2v70h-15.2c-98 0-177.8 76.9-177.8 171.4 0 45.4 18.4 88.2 51.9 120.7 24.8 24.1 56 40.4 90.1 47.2l21.6 4.3 5.4 21.4c19.5 77.1 103.6 133 200 133 95.1 0 179-55 199.4-130.9l6.2-22.8 23.5-2.8c88.9-10.6 155.9-83.8 155.9-170.1 0-45.3-18.4-88.2-51.9-120.6-33.7-32.7-78.5-50.8-125.9-50.8h-15.2v-70h15.2c65.8 0 127.8 25 174.7 70.5 47.2 45.8 73.1 106.4 73.1 170.9 0 59.3-22.5 116.4-63.3 160.8-35.1 38.2-81.3 64.4-131.9 75.1-16.9 43.1-48.2 81.5-89.9 109.9-48.8 33.2-107.5 50.8-169.9 50.8-62.1 0-122.9-18.4-171.3-51.7-42.4-29.3-73.9-69-90.2-113.4-39.2-11.3-75-32-104.4-60.6C92.1 531 66.1 470.3 66.1 405.8c0-64.4 26-125.1 73.1-170.9zM825.4 146.60000000000002c-29.8 0-55.6-17-68.4-41.8H614c-10.7 30.8-35.1 55.2-65.9 65.9V298.1h160.2c47.9 0 86.9 39 86.9 86.9 0 47.9-39 86.9-86.9 86.9H317.9c-47.9 0-86.9-39-86.9-86.9 0-47.9 39-86.9 86.9-86.9h160.2v-127.4c-30.8-10.7-55.2-35.1-65.9-65.9H258.6c-12.7 24.8-38.5 41.8-68.4 41.8-42.4 0-76.8-34.4-76.8-76.8s34.4-76.8 76.8-76.8c29.8 0 55.6 17 68.4 41.8h153.6C426.7-7 466.4-37 513.1-37c46.6 0 86.4 30 100.9 71.8h143c12.7-24.8 38.5-41.8 68.4-41.8 42.4 0 76.8 34.4 76.8 76.8s-34.4 76.8-76.8 76.8zM296 385c0 12.1 9.8 21.9 21.9 21.9h390.4c12.1 0 21.9-9.8 21.9-21.9 0-12.1-9.8-21.9-21.9-21.9H317.9c-12.1 0-21.9 9.8-21.9 21.9z m217.1-362c-11.9 0-22.8 4.5-31 11.8-9.7 8.6-15.8 21.1-15.8 35 0 13.9 6.1 26.4 15.8 35 8.3 7.3 19.1 11.8 31 11.8 11.9 0 22.8-4.5 31-11.8 9.7-8.6 15.8-21.1 15.8-35 0-13.9-6.1-26.4-15.8-35-8.3-7.3-19.1-11.8-31-11.8z"  horiz-adv-x="1024" />
      
      <glyph glyph-name="web-icon-" unicode="&#59099;" d="M257.216 295.168l253.76-279.168 253.76 279.168c21.856 24.064 13.312 43.52-19.04 43.52h-117.408V661.248c0 32.544-26.24 58.752-58.624 58.752h-117.44A58.56 58.56 0 0 1 393.6 661.248v-322.592H276.288c-32.288 0-40.896-19.456-19.072-43.488z"  horiz-adv-x="1024" />
      
      <glyph glyph-name="web-icon-1" unicode="&#59100;" d="M765.792 440.832L512.032 720l-253.76-279.168c-21.856-24.064-13.312-43.52 19.04-43.52h117.408v-322.592c0-32.544 26.24-58.752 58.624-58.752h117.44a58.56 58.56 0 0 1 58.624 58.752V397.344h117.408c32.192 0 40.832 19.456 18.976 43.488z"  horiz-adv-x="1024" />
      
      <glyph glyph-name="dianchi" unicode="&#59098;" d="M560.913067 554.666667 290.133333 315.204267l122.4192 0L309.469867 145.066667 580.266667 384.529067l-122.4192 0L560.913067 554.666667zM955.733333 503.466667l-51.2 0 0 102.4c0 28.279467-22.920533 51.2-51.2 51.2L51.2 657.066667c-28.279467 0-51.2-22.920533-51.2-51.2l0-512c0-28.279467 22.920533-51.2 51.2-51.2l802.133333 0c28.279467 0 51.2 22.920533 51.2 51.2l0 102.4 51.2 0c28.279467 0 51.2 22.920533 51.2 51.2L1006.933333 452.266667C1006.933333 480.546133 984.0128 503.466667 955.733333 503.466667zM836.266667 136.533333c0-14.1312-11.4688-25.6-25.6-25.6l-716.8 0C79.7184 110.933333 68.266667 122.402133 68.266667 136.533333l0 426.666667C68.266667 577.3312 79.7184 588.8 93.866667 588.8l716.8 0c14.1312 0 25.6-11.4688 25.6-25.6L836.266667 136.533333z"  horiz-adv-x="1024" />
      
      <glyph glyph-name="yangan1" unicode="&#59091;" d="M1069.13581339 710.280955H214.0046641C210.52852121 710.280955 207.05237833 706.80481212 207.05237833 703.3286692300001v-53.88021469c0-5.21421433 3.47614289-8.6903572 6.95228577-8.6903572h38.23757171v-218.99700166c0-60.83250046 48.66600037-109.49850083 109.49850083-109.49850082H919.66166941c60.83250046 0 109.49850083 48.66600037 109.49850082 109.49850082V640.75809734h38.23757171c5.21421433 0 8.6903572 3.47614289 8.69035722 6.95228576V703.3286692300001c0 3.47614289-3.47614289 6.95228576-6.95228578 6.95228577z m-109.49850083-288.51985932c0-20.8568573-17.38071443-38.23757172-38.23757171-38.23757171H361.74073664c-20.8568573 0-38.23757172 17.38071443-38.23757171 38.23757172V640.75809734h636.13414763v-218.99700166zM474.71538034 421.76109569h46.92792893c5.21421433 0 6.95228576 1.73807144 6.95228576 6.95228576v83.4274292c0 5.21421433-1.73807144 6.95228576-6.95228576 6.95228576h-46.92792893c-5.21421433 0-6.95228576-1.73807144-6.95228576-6.95228576v-83.4274292c0-5.21421433 1.73807144-6.95228576 6.95228576-6.95228577zM761.49716822 421.76109569h46.92792892c5.21421433 0 6.95228576 1.73807144 6.95228576 6.95228576v83.4274292c0 5.21421433-1.73807144 6.95228576-6.95228576 6.95228576h-46.92792892c-5.21421433 0-6.95228576-1.73807144-6.95228577-6.95228576v-83.4274292c-1.73807144-5.21421433 1.73807144-6.95228576 6.95228577-6.95228577zM618.97531 421.76109569h46.92792893c5.21421433 0 6.95228576 1.73807144 6.95228576 6.95228576v83.4274292c0 5.21421433-1.73807144 6.95228576-6.95228576 6.95228576h-46.92792893c-5.21421433 0-6.95228576-1.73807144-6.95228577-6.95228576v-83.4274292c-1.73807144-5.21421433 1.73807144-6.95228576 6.95228577-6.95228577zM453.85852304 143.66966502000002c0 17.38071443 6.95228576 26.07107163 15.64264298 38.23757172 12.16650009 15.64264297 27.80914307 34.76142883 29.5472145 69.52285766 0 1.73807144 0 3.47614289-1.73807143 5.21421434s-3.47614289 1.73807144-5.21421433 1.73807143h-46.92792893c-3.47614289 0-6.95228576-3.47614289-6.95228577-6.95228577-1.73807144-13.90457153-6.95228576-20.8568573-15.64264296-31.28528595-12.16650009-15.64264297-29.54721451-38.23757172-29.54721451-78.21321487s17.38071443-62.5705719 29.54721451-78.21321488c8.6903572-10.42842865 13.90457153-19.11878586 15.64264296-31.28528595 0-3.47614289 3.47614289-6.95228576 6.95228577-6.95228577h46.92792893c1.73807144 0 3.47614289 1.73807144 5.21421433 1.73807145s1.73807144 3.47614289 1.73807143 5.21421432c-1.73807144 34.76142883-17.38071443 53.8802147-29.5472145 69.52285768-10.42842865 15.64264297-15.64264297 24.33300019-15.64264297 41.7137146zM648.52252451 143.66966502000002c0 17.38071443 6.95228576 26.07107163 15.64264297 38.23757172 12.16650009 15.64264297 27.80914307 34.76142883 29.54721451 69.52285766 0 1.73807144 0 3.47614289-1.73807144 5.21421434-1.73807144 1.73807144-3.47614289 1.73807144-5.21421433 1.73807143H641.57023875c-3.47614289 0-6.95228576-3.47614289-6.95228577-6.95228577-1.73807144-13.90457153-6.95228576-20.8568573-15.64264298-31.28528595-12.16650009-15.64264297-29.54721451-38.23757172-29.54721451-78.21321487s17.38071443-62.5705719 29.54721451-78.21321488c8.6903572-10.42842865 13.90457153-19.11878586 15.64264298-31.28528595 0-3.47614289 3.47614289-6.95228576 6.95228577-6.95228577h46.92792891c1.73807144 0 3.47614289 1.73807144 5.21421433 1.73807145s1.73807144 3.47614289 1.73807145 5.21421432c-1.73807144 34.76142883-17.38071443 53.8802147-29.54721451 69.52285768-10.42842865 15.64264297-17.38071443 24.33300019-17.38071443 41.7137146zM844.92459741 143.66966502000002c0 17.38071443 6.95228576 26.07107163 15.64264298 38.23757172 12.16650009 15.64264297 27.80914307 34.76142883 29.54721451 69.52285766 0 1.73807144 0 3.47614289-1.73807144 5.21421434s-3.47614289 1.73807144-5.21421433 1.73807143h-46.92792892c-3.47614289 0-6.95228576-3.47614289-6.95228576-6.95228577-1.73807144-13.90457153-6.95228576-20.8568573-15.64264299-31.28528595-12.16650009-15.64264297-29.54721451-38.23757172-29.54721451-78.21321487s17.38071443-62.5705719 29.54721451-78.21321488c8.6903572-10.42842865 13.90457153-19.11878586 15.64264299-31.28528595 0-3.47614289 3.47614289-6.95228576 6.95228576-6.95228577H884.90024058c1.73807144 0 3.47614289 1.73807144 5.21421432 1.73807145s1.73807144 3.47614289 1.73807144 5.21421432c-1.73807144 34.76142883-17.38071443 53.8802147-29.54721451 69.52285768-10.42842865 15.64264297-17.38071443 24.33300019-17.38071442 41.7137146z"  horiz-adv-x="1280" />
      
      <glyph glyph-name="keranqiti" unicode="&#59196;" d="M568.25173333 843.84426667S275.52426667 506.88 432.26453333 284.0576c135.9872-193.3312 54.61333333-359.90186667 54.61333334-359.90186667s259.95946667 93.3888 84.65066666 416.1536c-181.8624 312.38826667-3.2768 503.53493333-3.2768 503.53493334zM311.02293333 843.84426667S18.29546667 506.88 175.03573333 284.0576c135.9872-193.3312 54.61333333-359.90186667 54.61333334-359.90186667S490.15466667 17.544533330000036 314.29973333 340.30933332999996c-182.40853333 312.38826667-3.2768 503.53493333-3.2768 503.53493334z m519.91893334 0s-292.72746667-336.96426667-135.9872-559.78666667c135.9872-193.3312 54.61333333-359.90186667 54.61333333-359.90186667s259.95946667 93.3888 84.65066667 416.1536c-182.40853333 312.38826667-3.2768 503.53493333-3.2768 503.53493334z"  horiz-adv-x="1024" />
      
      <glyph glyph-name="dianya" unicode="&#58893;" d="M512.079951-128c-69.080615 0-136.152615 13.548308-199.286154 40.251077a509.597538 509.597538 0 0 0-162.697846 109.686154 511.054769 511.054769 0 0 0-109.725539 162.737231A506.722462 506.722462 0 0 0 0.001182 383.96061499999996c0 69.041231 13.548308 136.113231 40.251076 199.286154a509.597538 509.597538 0 0 0 109.686154 162.658462A511.054769 511.054769 0 0 0 511.922412 895.881846c69.080615 0 136.152615-13.548308 199.286154-40.251077a509.597538 509.597538 0 0 0 162.697846-109.725538A511.054769 511.054769 0 0 0 1023.883028 384c0-69.080615-13.548308-136.152615-40.251077-199.286154a509.597538 509.597538 0 0 0-109.725539-162.737231A511.054769 511.054769 0 0 0 512.079951-128z m0 951.650462c-242.569846 0-439.729231-197.159385-439.729231-439.729231 0-242.530462 197.159385-439.689846 439.729231-439.689846 242.530462 0 439.689846 197.159385 439.689846 439.689846 0 242.569846-197.316923 439.729231-439.689846 439.729231zM512.079951 128.118154a36.233846 36.233846 0 0 0-31.192616 17.723077l-209.801846 354.500923a36.233846 36.233846 0 0 0 62.345846 36.824615l178.648616-301.883077 178.491077 301.883077a36.233846 36.233846 0 0 0 62.345846-36.824615l-209.801846-354.461539a35.879385 35.879385 0 0 0-31.035077-17.762461z"  horiz-adv-x="1024" />
      
      <glyph glyph-name="lengqueyewendu" unicode="&#59235;" d="M547.95389 197.196364c26.236176-13.233775 44.155277-40.40371 44.035458-71.796224-0.115687-44.151145-36.189396-79.873661-80.340541-79.638156-44.155277 0.119819-79.873661 36.193527-79.638155 80.340541 0.115687 31.504069 18.390113 58.562449 44.853531 71.560719l2.342663 609.939437c0.119819 19.559379 16.163137 35.48701 35.722516 35.371322 19.555247-0.115687 35.48701-16.163137 35.48701-35.722515l-2.462482-610.055124zM539.054248 703.224019h177.782111v-31.483411h-177.782111zM539.054248 525.441908h177.782111v-31.48341h-177.782111zM539.054248 365.459081h177.782111v-31.479279h-177.782111zM283.832037 91.574066c-29.173801-0.004132-59.934167 17.514197-70.040259 37.722249-6.982541 13.969214-37.759434 44.584972-83.711993 44.584972-46.026929 0-95.094774-48.212588-95.586445-48.700126l-22.224313 22.298683c2.367453 2.363322 58.694663 57.880722 117.810758 57.880722 58.921906 0 99.887525-38.01973 111.873532-61.983481 5.11089-10.221779 32.404776-25.389181 52.013734-18.815677 29.31841 9.771426 34.425168 15.365722 34.912707 15.968948-0.322271-0.400773-1.152739-1.933627-1.152739-4.197788h31.48341c0-19.266029-22.096231-30.578573-55.269499-41.634951-6.416501-2.148474-13.22138-3.123551-20.108893-3.123551zM913.025109 116.632712c-23.538188 0-46.361595 9.862323-61.871926 16.568042-5.561243 2.404638-10.81261 4.672931-14.803814 6.003332-12.824738 4.27629-24.120755 13.671733-36.073708 23.61669-17.059712 14.188193-34.693727 28.859793-56.736247 28.859793-39.676535 0-80.369463-24.20752-80.778499-24.451289l-16.229243 26.975747c1.96668 1.181661 48.687731 28.954822 97.007742 28.954821 33.425301 0 57.517134-20.038654 76.869929-36.139815 9.61029-7.994803 18.691726-15.547516 25.90151-17.952155 5.276157-1.760096 11.130749-4.288685 17.332402-6.970146 33.474881-14.469148 60.686133-23.509266 80.989215 1.86752l24.587635-19.666803c-16.729177-20.902175-36.709987-27.665737-56.194996-27.665737zM482.776619-127.124084c-0.929628 0-1.855125 0.020658-2.780622 0.066107-25.14128 1.127949-47.791156 17.336534-69.209791 49.54299-21.154208 25.699057-39.697193 38.222183-55.335607 37.325608-13.126351-0.785019-26.88485-11.857925-40.932565-32.925368-1.512195-19.3404-11.936427-34.635883-29.743973-43.407443-26.318809-12.961084-66.792758-8.858324-90.231786 9.155806-13.378384 10.279623-19.898177 24.302549-18.237241 38.90391-6.255365 30.752103-23.158073 49.076109-46.654944 50.402379-26.521262 1.437825-60.256439-19.840333-73.38279-63.520467l-30.153009 9.052514c15.721047 52.331874 59.963089 88.438636 105.312422 85.897652 39.284025-2.218713 67.821547-31.648678 76.33281-78.725054l0.532987-2.95002-0.59083-2.937625c-0.309876-1.54938-1.132081-5.668667 6.015728-11.163803 14.117955-10.849795 41.349865-13.646943 57.132887-5.879382 8.436893 4.160603 12.366122 10.556445 12.366122 20.12955v4.577903l2.45835 3.867254c20.848463 32.797285 43.05625 49.460356 67.891786 50.943629 26.736109 1.636146 53.554852-14.568308 82.071715-49.419039l0.954418-1.297348c15.394644-23.327472 30.471149-35.48701 44.808083-36.12742 15.411171-0.772624 33.160873 11.287753 52.910309 35.615092 18.757833 43.403311 52.943363 69.565116 89.740116 68.094238 36.334004-1.318006 66.619228-27.971482 81.014005-71.288028 6.428896-19.232976 24.777692-32.21885 44.465153-31.388382 19.972547 0.768493 34.883784 15.03932 40.920171 39.14768l0.735439 2.921098 1.760096 2.450087c34.97055 48.600966 67.916576 71.383056 101.131161 69.610565 31.16114-1.656804 59.070646-24.889248 85.310953-71.019468l-27.364124-15.568175c-20.232843 35.56138-40.296287 54.120892-59.624292 55.149681-20.811278 1.140344-45.076642-17.138214-72.213524-54.236579-11.911637-42.58937-43.461155-58.909511-69.445297-59.913509-33.5947-1.251899-64.710391 20.455954-75.543659 52.897914-10.089565 30.355462-29.636549 48.956291-52.290558 49.782627-23.827405 0.698254-47.03919-18.60496-60.421705-50.832074l-0.846995-2.045182-1.384113-1.731175c-26.339468-33.041055-51.720385-49.154611-77.477286-49.158743zM485.763824 67.30457c-52.852466 0-95.850872 42.948826-95.850872 95.735185 0 33.193927 16.824206 63.351068 44.502338 80.85287V844.655598c0 28.314411 22.980411 51.344402 51.228716 51.344402 28.363991 0 51.344402-23.034123 51.344402-51.344402V243.892625c27.682264-17.501802 44.502338-47.658943 44.502338-80.85287 0.004132-52.790491-42.936431-95.735185-95.726922-95.735185z m0 797.212019a19.848596 19.848596 0 0 1-19.860991-19.860991v-619.690205l-8.726111-4.342397c-22.067309-10.990272-35.780359-33.057581-35.780359-57.587372 0-35.429166 28.872188-64.255906 64.367461-64.255906 35.425035 0 64.251774 28.82674 64.251775 64.255906 0 24.529791-13.708918 46.592969-35.780359 57.587372l-8.726111 4.342397V844.655598c0 10.953087-8.854193 19.860992-19.745305 19.860991z"  horiz-adv-x="1024" />
      
      <glyph glyph-name="panel" unicode="&#58948;" d="M1021.72444445 268.62933333v-91.02222222h-45.51111112v91.02222222c0 62.69155555-12.288 123.44888889-36.40888888 180.67911112-23.32444445 55.296-56.88888889 104.90311111-99.55555556 147.56977777s-92.27377778 76.11733333-147.56977778 99.55555556c-57.23022222 24.23466667-117.98755555 36.40888889-180.67911111 36.40888889s-123.44888889-12.288-180.67911111-36.40888889c-55.296-23.32444445-104.90311111-56.88888889-147.56977778-99.55555556S107.63377778 504.60444445 84.19555555 449.30844445c-24.23466667-57.23022222-36.40888889-117.98755555-36.40888888-180.67911112v-91.02222222H2.27555555v91.02222222c0 281.48622222 228.23822222 509.72444445 509.72444445 509.72444445s509.72444445-228.23822222 509.72444445-509.72444445zM489.24444445 655.2462222199999h45.5111111v68.26666667h-45.5111111v-68.26666667z m-315.05066667-81.00977777l48.24177777-48.24177778 32.19911112 32.19911111-48.24177778 48.24177777-32.19911111-32.1991111z m-117.19111111-328.36266667h68.26666666v45.51111111h-68.26666666v-45.51111111z m841.728 45.51111111v-45.51111111h68.26666666v45.51111111h-68.26666666zM769.36533333 558.0799999999999l32.19911112-32.19911111 48.24177777 48.24177778-32.19911111 32.19911111-48.24177778-48.24177778zM514.61688889 183.06844445000002c-12.51555555 0-22.75555555-10.24-22.75555556-22.75555556s10.24-22.75555555 22.75555556-22.75555556 22.75555555 10.24 22.75555556 22.75555556-10.24 22.75555555-22.75555556 22.75555556m0 45.5111111c37.66044445 0 68.26666667-30.60622222 68.26666666-68.26666666s-30.60622222-68.26666667-68.26666666-68.26666667-68.26666667 30.60622222-68.26666667 68.26666667 30.60622222 68.26666667 68.26666667 68.26666666z m-81.23733334 88.86044445l61.66755556-175.44533333 37.20533334-15.13244445 8.98844444 39.02577778-107.86133334 151.552M283.648 606.2080000000001l306.51733333-430.53511111-25.48622222-111.04711111-105.81333333 43.008-175.21777778 498.57422222zM830.57777778 35.15733333000003H193.42222222v-45.51111111h637.15555556v45.51111111z"  horiz-adv-x="1024" />
      
      <glyph glyph-name="shandian" unicode="&#58881;" d="M826.04032 894.28992 504.32 745.84064 188.93824 312.86272 572.43648 312.86272 312.64768-126.28992 826.04032 430.3872 448.72704 430.3872Z"  horiz-adv-x="1024" />
      
      <glyph glyph-name="icon-class-a" unicode="&#58962;" d="M480.425 879.553c-260.772 0-472.232-211.396-472.232-472.231 0-260.771 211.46-472.23 472.232-472.23 260.771 0 472.231 211.459 472.231 472.23 0 260.835-211.46 472.231-472.231 472.231zM480.425-1.944c-226.032 0-409.267 183.236-409.267 409.266 0 226.033 183.236 409.268 409.267 409.268 226.031 0 409.266-183.236 409.266-409.268 0-226.032-183.236-409.266-409.266-409.266zM446.423 629.356l-155.812-405.701h57.062l44.518 122.917h169.645l47.346-122.917h61.060l-166.022 405.701h-57.797zM407.684 390.228l44.517 119.042c9.408 25.642 16.725 51.405 21.889 77.476 6.213-22.012 15.866-50.054 28.778-84.117l42.303-112.401-137.487 0z"  horiz-adv-x="1024" />
      
      <glyph glyph-name="wenduji" unicode="&#58904;" d="M844.3 677.1h-172c-9.4 0-17 7.6-17 17s7.6 17 17 17h172c9.4 0 17-7.6 17-17s-7.6-17-17-17zM844.3 421.1h-172c-9.4 0-17 7.6-17 17s7.6 17 17 17h172c9.4 0 17-7.6 17-17s-7.6-17-17-17zM758.3 549.1h-86c-9.4 0-17 7.6-17 17s7.6 17 17 17h86c9.4 0 17-7.6 17-17s-7.6-17-17-17zM411.4-101.4c-2.7 0-5.4 0-8.1 0.1-65.3 2-127 28.4-173.9 74.4-46.8 46-74.3 107.3-77.4 172.5-2 42.6 6 83.6 23.8 121.8 15.7 33.8 39 64.3 67.5 88.5V691.2c0 92.6 75.3 167.9 167.9 167.9h0.2c92.6 0 167.9-75.3 167.9-167.9V356c58.3-49.5 91.5-121.1 91.5-197.8 0-35.7-7.1-70.3-21.2-102.9-13.6-31.4-33-59.5-57.6-83.4-24.6-23.9-53.2-42.4-85-55-30.5-12.2-62.6-18.3-95.6-18.3z m-0.2 926.5c-73.8 0-133.9-60.1-133.9-133.9v-351.5l-6.4-5.1c-27.3-21.8-49.5-50-64.2-81.5-15.4-33.2-22.4-68.8-20.7-105.9 2.7-56.6 26.5-109.9 67.2-149.9s94.3-62.9 151-64.7c2.3-0.1 4.7-0.1 7-0.1 59 0 114.5 22.5 157 63.7 44.2 42.9 68.5 100.3 68.5 161.9 0 69.1-31 133.4-85.1 176.5l-6.4 5.1V691.2c0 73.8-60.1 133.9-133.9 133.9h-0.1zM410.3 25.1c-74.4 0-135 60.6-135 135s60.6 135 135 135 135-60.6 135-135-60.6-135-135-135z m0 236c-55.7 0-101-45.3-101-101s45.3-101 101-101 101 45.3 101 101-45.3 101-101 101zM410.3 261.1c-9.4 0-17 7.6-17 17v312c0 9.4 7.6 17 17 17s17-7.6 17-17v-312c0-9.4-7.6-17-17-17z"  horiz-adv-x="1024" />
      
      <glyph glyph-name="yangan" unicode="&#58887;" d="M860.7 741h-700c-9.7 0-17.5-7.8-17.5-17.5S151 706 160.7 706H212v-130.2c0-3.7-0.8-7.2 1.4-10.2l69-97.5c3.3-4.6 7.6-7.1 13.3-7.1h7.3v-59.9c0-35.4 29-66.1 64.4-66.1h286.7c35.4 0 61.9 30.7 61.9 66.1V461h9.8c5.6 0 10.9 2.5 14.2 7.1l70.4 97.6c2.1 3 3.6 6.4 3.6 10.1V706h46.7c9.7 0 17.5 7.8 17.5 17.5s-7.8 17.5-17.5 17.5zM681 401.1c0-16.1-10.8-31.1-26.9-31.1H367.4c-16.1 0-29.4 15-29.4 31.1V461h343v-59.9z m98 180.3L716.8 496H304.7L247 581.4V706h532v-124.6zM311.3 601h70c9.7 0 17.5 7.8 17.5 17.5S391 636 381.3 636h-70c-9.7 0-17.5-7.8-17.5-17.5s7.9-17.5 17.5-17.5zM473.2 601h70c9.7 0 17.5 7.8 17.5 17.5s-7.8 17.5-17.5 17.5h-70c-9.7 0-17.5-7.8-17.5-17.5s7.8-17.5 17.5-17.5zM635.1 601h70c9.7 0 17.5 7.8 17.5 17.5s-7.8 17.5-17.5 17.5h-70c-9.7 0-17.5-7.8-17.5-17.5s7.8-17.5 17.5-17.5zM333.6 295.5c-72.6-56.6-49-103.5-31.8-137.7 16.9-33.5 28-55.6-25.8-94.7-7.8-5.7-9.5-16.6-3.8-24.4 3.4-4.7 8.8-7.2 14.2-7.2 3.6 0 7.2 1.1 10.3 3.4 77.8 56.6 53.9 104.1 36.4 138.8-16.8 33.4-27.9 55.4 22 94.4 7.6 5.9 9 16.9 3 24.6s-16.9 8.8-24.5 2.8zM534.9 273.5c6.2 7.4 5.3 18.4-2.1 24.7-7.4 6.2-18.4 5.3-24.7-2.1-59.3-70.4-26.5-111.4-2.6-141.3 23.4-29.3 38.9-48.6-5.6-98-6.5-7.2-5.9-18.2 1.3-24.7 3.3-3 7.5-4.5 11.7-4.5 4.8 0 9.6 2 13 5.8 64.4 71.5 31.2 113 6.9 143.3-23.3 29.1-38.7 48.4 2.1 96.8zM734.4 179.1c-28.6 24.1-47.5 40-16.9 95.4 4.7 8.5 1.6 19.1-6.9 23.8-8.5 4.7-19.1 1.6-23.8-6.9-44.5-80.6-4.3-114.4 25-139.1 28.7-24.1 47.6-40.1 13.6-97.2-4.9-8.3-2.2-19 6.1-24 2.8-1.7 5.9-2.5 8.9-2.5 6 0 11.8 3.1 15.1 8.6 49.2 82.7 8.6 116.9-21.1 141.9z"  horiz-adv-x="1024" />
      
      <glyph glyph-name="chaxun" unicode="&#59215;" d="M264.80761742 134.35888687V711.14111311h494.38476516v-329.58984367h41.19873054V752.33984366H223.60888689v-659.17968734h288.39111311v41.19873056zM306.00634798 381.55126944000006h164.79492148v-41.19873055H306.00634798v41.19873055z m0 123.59619165h411.98730404v-41.19873055H306.00634798V505.14746109z m0 123.59619092h247.19238256v-41.19872982H306.00634798V628.74365201zM635.59619164 340.35253889c45.31860368 0 82.39746111-37.07885742 82.39746038-82.3974611s-37.07885742-82.39746111-82.39746038-82.39746037-82.39746111 37.07885742-82.3974611 82.39746037 37.07885742 82.39746111 82.3974611 82.3974611m0 41.19873055c-70.03784172 0-123.59619164-53.55834994-123.59619164-123.59619165s53.55834994-123.59619164 123.59619164-123.59619092 123.59619164 53.55834994 123.59619094 123.59619092-53.55834994 123.59619164-123.59619094 123.59619165zM841.58984367 93.16015632000006l-119.47631851 94.75707976M716.75769059 213.99603271l152.84729021-118.817139-25.25482187-32.5469969-152.88848901 118.81713899z"  horiz-adv-x="1024" />
      
      <glyph glyph-name="shuaxin" unicode="&#59011;" d="M738.27 610.27A317.91 317.91 0 0 1 512 704v64l-128-96 128-96v64a256 256 0 1 0-256-256h-64a320 320 0 1 1 546.27 226.27z"  horiz-adv-x="1024" />
      
      <glyph glyph-name="lianjie-duankai" unicode="&#59207;" d="M342.28697967 340.14933268000004c2.24018097-2.24018097 3.32164765-5.09834289 3.32164765-8.49723816s-1.08146667-6.33430481-3.32164764-8.49723817c-2.24018097-2.24018097-5.09834289-3.32164765-8.49723816-3.32164764H214.9056549c-3.39889526 0-6.33430481 1.08146667-8.49723815 3.32164764-2.24018097 2.24018097-3.32164765 5.09834289-3.32164765 8.49723817s1.08146667 6.33430481 3.32164765 8.49723816c2.24018097 2.24018097 5.09834289 3.32164765 8.49723815 3.32164765h118.88408662c3.39889526 0 6.33430481-1.08146667 8.49723815-3.32164765z m243.63899232 212.73994445l-88.75751496-6.64329529-101.42612458 101.81236268c-6.95228576 6.95228576-15.37227631 10.35118103-25.25997161 10.35118102-9.65595246 0-18.07594299-3.32164765-25.25997161-9.96494293l-54.61406709-54.22782897c-6.95228576-6.95228576-10.35118103-15.21778107-10.35118102-24.95098115 0-9.88769531 3.39889526-18.38493347 10.35118102-25.25997161l101.73511506-101.73511505-6.72054291-89.14375305c-8.6517334 5.25283813-15.60401917 10.35118103-20.77960969 15.60401916L240.16562652 493.56310526c-20.77960969 21.32034302-31.13079071 46.58031464-31.13079071 75.77991486 0 29.66308594 10.58292389 54.84580994 31.51702882 75.39367675l54.61406707 54.22782898c20.54786682 20.54786682 45.73059083 30.82180024 75.39367677 30.82180024 29.8948288 0 55.23204804-10.58292389 75.77991484-31.51702881l123.98242951-124.44591523c5.17559052-5.33008576 10.42842865-12.28237152 15.60401916-20.93410492zM366.0019989 263.67418924000003L270.98742675 168.50512186000003c-2.70366669-2.24018097-5.56182862-3.32164765-8.49723815-3.32164765s-5.87081909 1.08146667-8.49723816 3.32164765c-2.24018097 2.47192383-3.32164765 5.33008576-3.32164765 8.49723816s1.08146667 6.10256196 3.32164765 8.49723816l95.01457214 95.09181976c2.47192383 2.24018097 5.33008576 3.32164765 8.49723816 3.32164765s6.10256196-1.08146667 8.49723816-3.32164765c2.24018097-2.47192383 3.32164765-5.33008576 3.32164765-8.49723816 0.07724763-3.08990479-1.00421906-6.02531433-3.32164765-8.41999054z m62.80231476-15.21778107v-118.88408661c0-3.39889526-1.08146667-6.33430481-3.32164764-8.49723815-2.24018097-2.24018097-5.09834289-3.32164765-8.49723816-3.32164765s-6.33430481 1.08146667-8.49723817 3.32164765c-2.24018097 2.24018097-3.32164765 5.09834289-3.32164764 8.49723815V248.45640817000003c0 3.39889526 1.08146667 6.33430481 3.32164764 8.49723817 2.24018097 2.24018097 5.09834289 3.32164765 8.49723817 3.32164764s6.33430481-1.08146667 8.49723816-3.32164764c2.24018097-2.24018097 3.32164765-5.09834289 3.32164764-8.49723816z m386.23809814 35.61115266c0-29.66308594-10.58292389-54.84580994-31.5170288-75.39367677l-54.61406708-54.22782897c-20.54786682-20.54786682-45.73059083-30.82180024-75.39367676-30.82180024-29.97207641 0-55.23204804 10.58292389-75.77991486 31.51702881L453.7552948 279.58719887999996c-5.25283813 5.25283813-10.35118103 12.12787628-15.60401917 20.77960969l88.75751497 6.72054291 101.34887694-101.73511506c6.72054292-6.72054292 15.06328583-10.04219055 25.25997162-10.19668579s18.61667633 3.08990479 25.25997162 9.8104477l54.61406708 54.22782898c6.95228576 6.95228576 10.35118103 15.21778107 10.35118102 24.95098113 0 9.88769531-3.39889526 18.38493347-10.35118102 25.25997163L631.57931518 411.44888559l6.72054292 88.75751495c8.6517334-5.25283813 15.60401917-10.35118103 20.77960968-15.60401916l124.75490569-124.75490571c20.8568573-21.39759064 31.20803833-46.58031464 31.20803833-75.77991484zM618.91070557 723.76101176v-118.88408662c0-3.39889526-1.08146667-6.33430481-3.32164765-8.49723815-2.24018097-2.24018097-5.09834289-3.32164765-8.49723815-3.32164765s-6.33430481 1.08146667-8.49723817 3.32164765c-2.24018097 2.24018097-3.32164765 5.09834289-3.32164764 8.49723816V723.76101176c0 3.39889526 1.08146667 6.33430481 3.32164765 8.49723815 2.24018097 2.24018097 5.09834289 3.32164765 8.49723815 3.32164765s6.33430481-1.08146667 8.49723816-3.32164765c2.24018097-2.24018097 3.32164765-5.02109528 3.32164765-8.49723815zM770.1615448 667.67923991L674.99247742 572.5874201500001c-2.70366669-2.24018097-5.56182862-3.32164765-8.49723817-3.32164766s-5.87081909 1.08146667-8.49723815 3.32164765c-2.24018097 2.47192383-3.32164765 5.33008576-3.32164765 8.49723815s1.08146667 6.10256196 3.32164765 8.49723816L753.01257325 684.67371622c2.47192383 2.24018097 5.33008576 3.32164765 8.49723815 3.32164765s6.10256196-1.08146667 8.49723816-3.32164765c2.24018097-2.47192383 3.32164765-5.33008576 3.32164765-8.49723816 0.07724763-3.16715241-1.00421906-6.02531433-3.16715241-8.49723816z m47.50728607-137.42351533c2.24018097-2.24018097 3.32164765-5.09834289 3.32164765-8.49723815s-1.08146667-6.33430481-3.32164765-8.49723816c-2.24018097-2.24018097-5.09834289-3.32164765-8.49723815-3.32164765h-118.96133424c-3.39889526 0-6.33430481 1.08146667-8.49723816 3.32164765-2.24018097 2.24018097-3.32164765 5.09834289-3.32164764 8.49723816s1.08146667 6.33430481 3.32164764 8.49723815c2.24018097 2.24018097 5.09834289 3.32164765 8.49723817 3.32164765h118.88408661c3.47614289 0 6.33430481-1.08146667 8.57448577-3.32164765z"  horiz-adv-x="1024" />
      
      <glyph glyph-name="xinzeng" unicode="&#58990;" d="M230.4 307.2h204.8v-204.8c0-15.36 12.8-25.6 25.6-25.6s25.6 10.24 25.6 25.6v204.8h204.8c12.8 0 25.6 10.24 25.6 25.6s-12.8 25.6-25.6 25.6h-204.8v204.8c0 15.36-12.8 25.6-25.6 25.6s-25.6-10.24-25.6-25.6v-204.8H230.4c-12.8 0-25.6-10.24-25.6-25.6s12.8-25.6 25.6-25.6zM921.6 819.2H256c-12.8 0-25.6-10.24-25.6-25.6s12.8-25.6 25.6-25.6h640v-640c0-15.36 12.8-25.6 25.6-25.6s25.6 10.24 25.6 25.6V793.6c0 15.36-12.8 25.6-25.6 25.6zM819.2 716.8H102.4c-12.8 0-25.6-10.24-25.6-25.6v-716.8c0-15.36 12.8-25.6 25.6-25.6h716.8c12.8 0 25.6 10.24 25.6 25.6V691.2c0 15.36-12.8 25.6-25.6 25.6z m-25.6-51.2v-665.6H128V665.6h665.6z"  horiz-adv-x="1024" />
      
      <glyph glyph-name="xinzeng1" unicode="&#58896;" d="M230.4 307.20000000000005h204.8v-204.8c0-15.36 12.8-25.6 25.6-25.6s25.6 10.24 25.6 25.6V307.20000000000005h204.8c12.8 0 25.6 10.24 25.6 25.6s-12.8 25.6-25.6 25.6H486.4V563.2c0 15.36-12.8 25.6-25.6 25.6s-25.6-10.24-25.6-25.6v-204.8H230.4c-12.8 0-25.6-10.24-25.6-25.6s12.8-25.6 25.6-25.6zM921.6 819.2H256c-12.8 0-25.6-10.24-25.6-25.6S243.2 768 256 768h640v-640c0-15.36 12.8-25.6 25.6-25.6s25.6 10.24 25.6 25.6V793.6c0 15.36-12.8 25.6-25.6 25.6zM819.2 716.8H102.4c-12.8 0-25.6-10.24-25.6-25.6v-716.8c0-15.36 12.8-25.6 25.6-25.6h716.8c12.8 0 25.6 10.24 25.6 25.6V691.2c0 15.36-12.8 25.6-25.6 25.6z m-25.6-51.2V0H128V665.6h665.6z"  horiz-adv-x="1024" />
      
      <glyph glyph-name="icon-import" unicode="&#58891;" d="M256 708.266667h699.733333a68.266667 68.266667 0 0 0 68.266667-68.266667v-688.64a68.266667 68.266667 0 0 0-68.266667-68.266667H256a68.266667 68.266667 0 0 0-68.266667 68.266667V640a68.266667 68.266667 0 0 0 68.266667 68.266667z m0-68.266667v-699.733333h699.733333V640H256zM836.266667 759.466667V827.733333a68.266667 68.266667 0 0 1-68.266667 68.266667H68.266667a68.266667 68.266667 0 0 1-68.266667-68.266667v-688.64a68.266667 68.266667 0 0 1 68.266667-68.266666h68.266666V128H68.266667V827.733333h699.733333v-68.266666h68.266667zM836.266667 330.308267H646.126933V520.5333330000001h-63.880533v-190.225066H392.533333v-63.470934h190.122667V76.79999999999995h63.556267V266.83733299999994H836.266667z"  horiz-adv-x="1024" />
      
      <glyph glyph-name="gengduo" unicode="&#58927;" d="M514.554 834c-248.709 0-450.284-200.379-450.284-447.598s201.586-447.594 450.283-447.594c248.674 0 450.261 200.375 450.261 447.594 0.001 247.211-201.587 447.598-450.261 447.598zM514.479-3.037c-214.814 0-388.955 174.142-388.955 388.955 0 214.814 174.142 388.955 388.955 388.955 214.813 0 388.955-174.142 388.955-388.955 0-214.814-174.142-388.955-388.955-388.955zM280.224 388.553c0-31.312 25.384-56.695 56.695-56.695s56.695 25.384 56.695 56.695c0 31.312-25.384 56.695-56.695 56.695-31.312 0-56.695-25.384-56.695-56.695zM470.086 388.553c0-31.312 25.384-56.695 56.695-56.695s56.695 25.384 56.695 56.695c0 31.312-25.384 56.695-56.695 56.695-31.312 0-56.695-25.384-56.695-56.695zM641.49 388.553c0-31.312 25.384-56.695 56.695-56.695s56.695 25.384 56.695 56.695c0 31.312-25.384 56.695-56.695 56.695-31.312 0-56.695-25.384-56.695-56.695z"  horiz-adv-x="1028" />
      
      <glyph glyph-name="weixiubanshou" unicode="&#59157;" d="M975.8922 152.928413l-230.14176 230.125303c14.820545 41.375012 22.321332 84.624306 22.321332 128.94697 0 211.731736-172.249292 383.999314-383.999314 383.999314-52.713963 0-103.999814-10.62581-152.392871-31.572058l-22.893673-9.910839c-0.036571-0.036571 0.142628-0.053028 0.071314-0.0896-2.177825-0.947198-4.21485-2.322282-5.999532-4.106964-7.572101-7.588558-7.572101-19.927736 0.036571-27.536408 0.107886-0.107886-0.107886-0.160914-0.036571-0.266971l214.999388-214.999388-129.321826-129.303541L77.856775 688.90917c-0.321828-0.036571-0.643656-0.053028-1.071541 0.374856-8.928898 8.928898-23.392873 8.928898-32.321771 0-2.428339-2.446624-4.21485-5.286391-5.321133-8.321814-0.107886-0.285257-0.250514-0.142628-0.393142-0.160914l-7.107644-16.427856C10.715409 616.035243 0.071314 564.749392 0.071314 511.998857c0-211.713451 172.249292-383.999314 383.999314-383.999314 44.286092 0 87.535387 7.500787 128.963427 22.321332l230.14176-230.107018C774.248675-110.857173 815.570658-128 859.534922-128c0 0 0 0 0.036571 0 43.927693 0 85.286248 17.142827 116.357278 48.213857C1040.034714-15.643629 1040.034714 88.749327 975.8922 152.928413zM924.213207-28.072407C906.927752-45.357862 883.962764-54.857273 859.569665-54.857273l-0.036571 0c-24.427842 0-47.39283 9.499412-64.643542 26.784866L530.213453 236.570778l-22.820531-9.857811C468.214021 209.74934 426.714667 201.142269 384.070628 201.142269c-171.391694 0-310.856588 139.428322-310.856588 310.856588 0 23.820757 2.678852 47.268487 7.999986 70.125589l193.356455-193.393026c8.107871-6.463988 19.249337-6.553588 27.499837-0.411428l203.28558 203.28558c0.071314 0.071314-0.071314 0.160914 0 0.232228 8.285242 8.285242 8.535756 21.215048 1.428112 30.196975L313.928582 814.873745c22.893673 5.302848 46.321289 7.9817 70.142046 7.9817 171.391694 0 310.856588-139.446608 310.856588-310.856588 0-42.697067-8.60707-84.178135-25.570697-123.285723l-9.857811-22.820531L924.176635 101.214676C959.820915 65.570397 959.820915 7.571872 924.213207-28.072407z"  horiz-adv-x="1025" />
      
      <glyph glyph-name="shoudong" unicode="&#59177;" d="M821.574863 498.396888h2.870264C877.53991 498.396888 920.578554 455.296958 920.578554 402.130673v-285.902843c0-134.881995-109.20794-244.232938-243.921397-244.232937H477.679401a243.819252 243.819252 0 0 0-197.144259 100.418394l-194.703002 267.583202a94.917905 94.917905 0 0 0 5.760957 118.835072l9.050015 10.199142c33.845626 38.120379 92.144678 41.552439 130.213985 7.665955 0.919302-0.817157 1.818175-1.649636 2.701726-2.502543l37.134683-35.801696a14.336 14.336 0 0 1 20.291033 0.377935 14.376858 14.376858 0 0 1 4.009177 9.969317V677.982484c0 53.166284 43.043751 96.256 96.133426 96.256h2.870264c53.094783 0 96.133426-43.094823 96.133427-96.256v-87.047661a95.617596 95.617596 0 0 0 44.48399 10.90394h2.865157c44.116269 0 81.29181-29.754733 92.604329-70.316369a95.597167 95.597167 0 0 0 48.00798 12.849796h2.870265c40.576958 0 75.280599-25.168439 89.386773-60.765846a95.59206 95.59206 0 0 0 51.225536 14.790544zM317.210175-0.829925a198.456818 198.456818 0 0 1 160.469226-81.73614h198.977756c109.652269 0 198.543641 89.008838 198.543641 198.80411v285.902843c0 28.064239-22.727182 50.816958-50.755671 50.816957h-2.870264c-28.028489 0-50.750564-22.752718-50.750564-50.816957v-102.006743c0-26.097955-39.106075-26.097955-39.106075 0V448.111082c0 28.069347-22.727182 50.822065-50.75567 50.822065h-2.870265c-28.028489 0-50.750564-22.752718-50.750563-50.816957v-113.503123c0-26.097955-39.106075-26.097955-39.106075 0V505.577656c0 28.069347-22.727182 50.822065-50.755671 50.822065h-2.870264c-28.028489 0-50.750564-22.752718-50.750564-50.816958v-136.490773c0-26.097955-39.106075-26.097955-39.106075 0v308.885387c0 28.069347-22.727182 50.827172-50.755671 50.827172h-2.870264c-28.028489 0-50.750564-22.757825-50.750563-50.822065v-329.237706c0-15.474913-5.985676-30.336958-16.700649-41.480938-22.880399-23.794594-60.699451-24.509606-84.458294-1.598563l-37.134683 35.806803a46.807781 46.807781 0 0 1-67.517606-2.625117l-9.055123-10.194035a49.438005 49.438005 0 0 1-3.003052-61.894544L317.210175-0.829925zM586.054863 699.371571a22.982544 22.982544 0 0 0-45.965087 0c0 83.207022-67.456319 150.663342-150.663342 150.663342S238.763092 782.578594 238.763092 699.371571a22.982544 22.982544 0 1 0-45.965087 0C192.798005 807.966643 280.831362 896 389.426434 896s196.628429-88.033357 196.628429-196.628429z"  horiz-adv-x="1024" />
      
      <glyph glyph-name="weibiaoti-" unicode="&#58885;" d="M256 322.55999999999995V793.6c0 30.72-20.48 51.2-51.2 51.2s-51.2-20.48-51.2-51.2v-471.04c-61.44-20.48-102.4-76.8-102.4-143.36s40.96-122.88 102.4-143.36V-25.600000000000023c0-30.72 20.48-51.2 51.2-51.2s51.2 20.48 51.2 51.2v61.44c61.44 20.48 102.4 76.8 102.4 143.36s-40.96 122.88-102.4 143.36zM204.8 128c-30.72 0-51.2 20.48-51.2 51.2s20.48 51.2 51.2 51.2 51.2-20.48 51.2-51.2-20.48-51.2-51.2-51.2zM665.6 588.8c0 66.56-40.96 122.88-102.4 143.36V793.6c0 30.72-20.48 51.2-51.2 51.2s-51.2-20.48-51.2-51.2v-61.44C399.36 711.6800000000001 358.4 655.36 358.4 588.8s40.96-122.88 102.4-143.36V-25.600000000000023c0-30.72 20.48-51.2 51.2-51.2s51.2 20.48 51.2 51.2V445.44c61.44 20.48 102.4 76.8 102.4 143.36z m-153.6-51.2c-30.72 0-51.2 20.48-51.2 51.2s20.48 51.2 51.2 51.2 51.2-20.48 51.2-51.2-20.48-51.2-51.2-51.2zM972.8 230.39999999999998c0 66.56-40.96 122.88-102.4 143.36V793.6c0 30.72-20.48 51.2-51.2 51.2s-51.2-20.48-51.2-51.2v-419.84c-61.44-20.48-102.4-76.8-102.4-143.36s40.96-122.88 102.4-143.36V-25.600000000000023c0-30.72 20.48-51.2 51.2-51.2s51.2 20.48 51.2 51.2v112.64c61.44 20.48 102.4 76.8 102.4 143.36z m-153.6-51.2c-30.72 0-51.2 20.48-51.2 51.2s20.48 51.2 51.2 51.2 51.2-20.48 51.2-51.2-20.48-51.2-51.2-51.2z"  horiz-adv-x="1024" />
      
      <glyph glyph-name="shezhi" unicode="&#58917;" d="M857.729627 432.620347c-3.715625 20.454868-22.591531 40.09416-42.930765 44.705178l-9.732665 2.182712c-22.497387 6.731308-41.311895 21.520129-53.002145 41.668005-11.781324 20.225647-15.21861 43.902906-9.977235 65.694211l3.131317 10.044774c6.183839 19.893072-1.496074 46.00887-17.503653 59.448974-1.139963 0.963954-12.028964 9.893324-41.034579 26.508747-28.991288 16.600073-42.130539 21.505803-43.534516 22.014386-19.461237 6.962575-46.418192 0.338714-60.324924-14.518668l-6.862291-7.333012c-17.118889-16.000416-39.480176-24.813129-62.980403-24.813129-23.641443 0-46.062082 8.876158-62.456471 24.287149l-7.230682 7.749498c-13.893428 14.912641-40.943504 21.535479-60.373019 14.58109-1.418302-0.50142-14.588253-5.40408-43.657312-22.022573-28.944216-16.600073-39.801495-25.467021-40.989553-26.461675-16.207124-13.670348-23.702841-39.222303-17.457604-59.385529l2.869351-9.230222c5.473665-22.707165 2.00568-46.347584-9.744945-66.573231-11.766998-20.224624-30.704302-35.052331-52.323693-41.473577l-10.43977-2.367931c-20.387329-4.619204-39.247886-24.257473-42.963511-44.712341-0.261966-1.464351-2.591011-15.266705-2.591011-48.576345 0-33.292244 2.329045-47.064922 2.591011-48.505737 3.715625-20.464077 22.576181-40.102347 42.963511-44.722574l9.251711-2.066055c22.655999-6.637164 41.654702-21.496593 53.511751-41.829687 11.781324-20.225647 15.21861-43.903929 9.977235-65.738213l-3.085268-9.955746c-6.183839-19.884886 1.496074-45.998637 17.486256-59.455113 1.157359-0.962931 12.045337-9.885138 41.050951-26.499537 28.993335-16.60212 42.132586-21.505803 43.534516-22.014386 19.47761-6.947226 46.40182-0.356111 60.389392 14.57188l6.430456 6.939039c17.163915 16.162098 39.631626 25.058722 63.257719 25.058722 23.671119 0 46.139853-8.911974 63.287395-25.090445l6.478552-6.924713c10.083659-10.769274 26.491351-17.46272 42.807968-17.46272 6.258541 0 12.152784 0.977257 17.532305 2.907213 1.419326 0.500397 14.588253 5.40408 43.641963 22.014386 29.020964 16.622586 39.878243 25.567305 40.98853 26.499537 16.253172 13.656021 23.780613 39.207977 17.519002 59.409065l-2.914376 9.315156c-5.39794 22.730701-1.912559 46.317908 9.78997 66.434062 11.783371 20.271696 30.79947 35.128055 53.530171 41.829687l9.221012 2.111081c20.385283 4.604878 39.261189 24.242124 42.976814 44.706201 0.261966 1.471514 2.591011 15.283078 2.591011 48.607044C860.337012 417.368992 858.007967 431.14781 857.729627 432.620347zM826.746986 341.205335c-1.478677-8.188496-10.639315-17.679661-18.871813-19.540032l-22.48613-5.180999 0-1.372254c-25.489534-10.231015-46.724161-28.488845-60.57154-52.30732-15.807011-27.13501-20.494777-58.962903-12.954033-90.61581l3.192715-10.347672c2.465145-7.933693-1.26583-20.525476-7.634888-25.875321-0.094144-0.083911-9.915837-8.134261-36.378535-23.292496-26.584472-15.205307-38.554084-19.671015-38.614459-19.693528-1.925862-0.693802-4.300956-1.056052-6.876618-1.056052-7.512091 0-15.638165 3.068895-19.738553 7.447623l-11.844769 12.637832-0.832971 0c-22.342868 18.998703-50.563606 29.393447-80.156598 29.393447-31.69077 0-61.854766-11.943007-85.633333-34.356482l-7.124258-7.65126c-5.551436-5.9055-19.337417-9.036817-26.572192-6.445806-0.122797 0.046049-12.042267 4.510734-38.582737 19.717064-26.507724 15.188934-36.394908 23.24747-36.424584 23.269983-6.40078 5.389754-10.116405 17.972327-7.648191 25.930579l3.344165 10.933003c7.450692 30.741142 2.792603 62.702064-13.108552 90.013083-15.95846 27.349905-41.497113 47.326888-72.876798 56.478316l-10.210549 2.313695c-8.203846 1.865487-17.36346 11.364839-18.844184 19.49296-0.016373 0.122797-2.096754 12.561084-2.096754 42.939975 0 30.402427 2.080382 42.885739 2.096754 42.938951 1.480724 8.188496 10.640338 17.688871 18.844184 19.547195l11.42726 2.62171c30.378891 8.981559 55.839773 28.928866 71.659063 56.155974 15.870456 27.279297 20.542872 59.177797 12.907984 90.775446l-3.14462 10.215666c-2.468215 7.934716 1.24741 20.532639 7.525394 25.830295 0.106424 0.075725 9.977235 8.110725 36.439934 23.293519 26.584472 15.205307 38.549991 19.669992 38.614459 19.693528 7.570419 2.736321 21.125133-0.502443 26.630521-6.40078l7.941879-8.465812c22.977317-21.667485 53.109592-33.602306 84.832084-33.602306 31.534204 0 61.561078 11.834536 85.246523 34.025954l7.603165 8.072863c5.553483 5.91471 19.325138 9.076726 26.572192 6.446829 0.121773-0.046049 12.042267-4.510734 38.581714-19.716041 26.510794-15.181771 36.362162-23.239284 36.410258-23.277146 6.414083-5.383614 10.129708-17.958 7.664563-25.877367l-3.39226-11.026124c-7.449669-30.741142-2.791579-62.700017 13.09218-89.974197 15.712867-27.109428 41.019229-47.01785 72.276117-56.331983l10.781554-2.451842c8.187473-1.857301 17.364483-11.373025 18.844184-19.484773 0.016373-0.122797 2.096754-12.614296 2.190899-42.916439C828.847833 353.749022 826.764382 341.258547 826.746986 341.205335zM513.022795 524.490731c-77.890998 0-141.255141-62.995753-141.255141-140.424216 0-77.42744 63.364143-140.424216 141.255141-140.424216 77.892021 0 141.273561 62.996776 141.273561 140.424216C654.296355 461.494978 590.914816 524.490731 513.022795 524.490731zM513.022795 275.224598c-60.48149 0-109.674888 48.823985-109.674888 108.841917s49.193399 108.840894 109.674888 108.840894c60.482513 0 109.691261-48.822962 109.691261-108.840894S573.505307 275.224598 513.022795 275.224598z"  horiz-adv-x="1024" />
      
      <glyph glyph-name="soundsize" unicode="&#59039;" d="M773.12 580.832a374.24 374.24 0 0 0 57.168-199.408 374.24 374.24 0 0 0-59.12-202.464 15.392 15.392 0 0 0-23.84-2.592l-12.16 12.16a16 16 0 0 0-2.224 19.856l2.976 4.8a326.48 326.48 0 0 1 46.368 168.24c0 60.256-16.256 116.736-44.624 165.264a281.712 281.712 0 0 1-4.736 7.76 16 16 0 0 0 2.224 19.84l11.632 11.632a16 16 0 0 0 24.752-2.624l1.568-2.464z m-81.024-84.64a262.944 262.944 0 0 0 26.192-114.768 262.88 262.88 0 0 0-28.512-119.44 15.136 15.136 0 0 0-24.208-3.84l-12.832 12.832a16 16 0 0 0-3.104 18.272c0.976 2.016 1.792 3.76 2.432 5.216a215.264 215.264 0 0 1 18.224 86.96c0 29.072-5.76 56.8-16.16 82.128a201.184 201.184 0 0 1-4.56 10.032 16 16 0 0 0 3.12 18.24l12.032 12.032a16 16 0 0 0 25.52-3.984c0.704-1.328 1.312-2.56 1.856-3.68zM240 294.608h91.248a16 16 0 0 0 10.416-3.856L528 130.832V634.432l-186.688-159.968a16 16 0 0 0-10.4-3.84H240v-176z m-48-32v240a16 16 0 0 0 16 16h111.072L549.584 716.16A16 16 0 0 0 576 704v-642.8a16 16 0 0 0-26.416-12.144L319.392 246.608H208a16 16 0 0 0-16 16z"  horiz-adv-x="1024" />
      
      <glyph glyph-name="mute" unicode="&#59037;" d="M240 294.608h91.248a16 16 0 0 0 10.416-3.856L528 130.832V634.432l-186.688-159.968a16 16 0 0 0-10.4-3.84H240v-176z m-48-32v240a16 16 0 0 0 16 16h111.072L549.584 716.16A16 16 0 0 0 576 704v-642.8a16 16 0 0 0-26.416-12.144L319.392 246.608H208a16 16 0 0 0-16 16z m528 155.328l62.24 62.24a16 16 0 0 0 22.608 0l11.312-11.328a16 16 0 0 0 0-22.624L753.936 384l62.24-62.24a16 16 0 0 0 0-22.608l-11.328-11.312a16 16 0 0 0-22.624 0L720 350.064l-62.24-62.24a16 16 0 0 0-22.608 0l-11.312 11.328a16 16 0 0 0 0 22.624L686.064 384l-62.24 62.24a16 16 0 0 0 0 22.608l11.328 11.312a16 16 0 0 0 22.624 0L720 417.936z"  horiz-adv-x="1024" />
      
      <glyph glyph-name="anquan" unicode="&#58897;" d="M511.949346-54.636109c-64.228837 0-156.345838 48.654117-234.716766 123.960243-86.677105 83.315544-136.418996 178.347944-136.418996 260.772189V702.444702l25.983791 0.420579c0.915859 0 88.062662 1.779529 178.201612 38.171368 91.001597 36.786835 150.856823 79.70532 151.449317 80.125899l15.477506 11.199063 15.672958-11.298324c0.667196-0.494257 59.20952-42.794665 151.299915-80.027661 90.534969-36.540218 177.73396-38.146808 178.62219-38.146809l25.489534-0.420578 0.173962-372.37294c0-82.399685-49.742914-177.456644-136.469138-260.748652-78.394465-75.328639-170.537048-123.982756-234.765885-123.982756z m-318.401723 384.732432c0-154.985864 226.013547-332.392366 318.401723-332.392366 92.3892 0 318.427306 177.433108 318.427307 332.392366V651.985474l-11.027148 1.187035c-39.036062 4.202719-98.543364 14.462387-160.275333 39.382962-62.99473 25.487487-111.152543 52.979632-140.497895 71.5465l-6.626931 4.201695-6.625907-4.201695c-23.832801-15.130605-73.77219-44.550659-140.424217-71.5465-61.782112-24.920576-121.289414-35.155684-160.300916-39.382962l-11.026124-1.187035v-321.889151h-0.024559z m152.512532-5.043877l34.019815 39.802518 104.377232-88.35635 198.176548 227.125881 39.827078-34.364669-232.317113-266.311345-144.08356 122.103965zM511.949346-42.247964c-124.725676 0-358.74864 197.259666-358.74864 372.370893V690.279638l13.818727 0.223081c0.618077 0 90.088808 1.705851 182.626387 39.061644 92.784196 37.504172 153.47751 81.164554 154.071028 81.58411l8.232498 5.958712 8.454556-6.080485c0.173962-0.124843 59.95244-43.488467 153.899113-81.461313 92.63684-37.380352 182.254927-39.061644 183.121667-39.061645l13.250792-0.22308 0.171915-360.183316c-0.024559-175.110203-234.148831-372.34531-358.898043-372.34531z m-13.249768 816.759006c-23.464411-14.908548-72.635297-43.858904-138.423653-70.508867-60.471256-24.376177-118.766964-34.413787-157.01201-38.542828l-22.077831-2.373048v-332.989976c0-164.428933 232.17078-344.753905 330.763262-344.753905 98.592482 0 330.788845 180.325995 330.788846 344.753905V663.085276l-22.077832 2.374071c-38.269605 4.129041-96.565313 14.166651-156.986427 38.566364-62.08194 25.119097-109.597117 52.189639-138.52189 70.508867l-13.250792 8.381901-13.201673-8.405437zM363.540272 326.462562l17.94879 21.038153 104.280019-88.28165 198.100823 227.050156 21.113877-18.219966-216.149898-247.769037-125.293611 106.182344z"  horiz-adv-x="1024" />
      
      <glyph glyph-name="dingshi" unicode="&#59024;" d="M435.2 857.2928h186.4832a19.264 19.264 0 0 1 0 38.528H435.2a19.264 19.264 0 1 1 0-38.528zM518.4-72.576c208.4096 0 377.472 170.4064 377.472 380.7616 0 210.3552-169.0624 380.7616-377.472 380.7616-208.4096 0-377.472-170.4064-377.472-380.7616 0-210.3552 169.0624-380.7488 377.472-380.7488z m0-38.5152C288.64-111.0912 102.4 76.6336 102.4 308.1856s186.24 419.2768 416 419.2768S934.4 539.7504 934.4 308.1856c0-231.552-186.24-419.2768-416-419.2768zM511.936 883.0336v-172.3392h38.528V883.0336zM833.3952 745.728l-92.8896-100.608a19.264 19.264 0 1 1 28.3008-26.1376l92.8896 100.608a19.264 19.264 0 1 1-28.3008 26.1376zM511.936 533.0048v-217.92a19.264 19.264 0 0 1 38.528 0V533.0048a19.264 19.264 0 1 1-38.528 0zM460.8 290.4832a73.984 73.408 90 1 1 146.816 0 73.984 73.408 90 1 1-146.816 0Z"  horiz-adv-x="1024" />
      
      <glyph glyph-name="shanchu" unicode="&#58949;" d="M762.218 761.135H263.15c-45.947 0-83.178-37.228-83.178-83.175v-27.725h665.422V677.96c0.001 45.947-37.229 83.175-83.177 83.175m-145.29 55.45l12.238-87.507H396.203l12.237 87.507h208.488m6.66 55.45H401.783c-22.88 0-44.162-18.52-47.357-41.209L338.207 714.81c-3.168-22.66 12.97-41.181 35.85-41.181h277.258c22.879 0 39.017 18.519 35.823 41.208l-16.22 116.017c-3.17 22.662-24.451 41.181-47.33 41.181m152.493-277.248H249.288c-30.488 0-53.205-24.855-50.443-55.233l45.435-499.479c2.734-30.379 29.973-55.233 60.46-55.233h415.89c30.487 0 57.726 24.856 60.46 55.233l45.434 499.48c2.761 30.377-19.956 55.232-50.443 55.232M401.78 95.74h-83.178l-27.726 388.147H401.78V95.74z m166.356 0H457.233V483.887h110.904V95.74z m138.629 0h-83.178V483.887H734.49L706.766 95.74z"  horiz-adv-x="1024" />
      
      <glyph glyph-name="bianji" unicode="&#58884;" d="M498.688 28.672l3.584 45.056c0 2.048 3.584 46.592 8.704 93.696 3.072 28.16 5.632 50.688 8.704 68.096 5.12 33.792 10.24 47.104 19.968 56.832L1086.464 839.68c13.312 13.312 30.208 20.48 48.64 20.48 18.432 0.512 36.352-7.168 49.152-19.968L1315.84 708.608c13.312-13.312 20.48-30.72 19.968-49.152-0.512-18.432-7.68-35.84-20.48-48.64L768 63.488c-12.288-12.288-28.16-18.432-128.512-26.624-48.128-4.096-93.696-6.144-95.744-6.144l-45.056-2.048z m101.888 212.992c-4.608-18.944-10.752-73.728-15.872-129.024 56.832 3.584 113.152 8.704 133.12 12.8L1252.352 659.968l-116.736 116.736-535.04-535.04zM983.04 640.512l51.2 51.2 125.44-125.44-51.2-51.2L983.04 640.512z m311.296-729.088H526.848c-19.968 0-36.352 16.384-36.352 36.352 0 19.968 16.384 36.352 36.352 36.352h767.488c19.968 0 36.352-16.384 36.352-36.352 0-19.968-16.384-36.352-36.352-36.352z"  horiz-adv-x="1821" />
      
      <glyph glyph-name="lianjie" unicode="&#58883;" d="M762.24 389.12a32 32 0 0 0-46.08 44.16l55.68 58.24a125.76 125.76 0 0 1-12.16 171.2c-48.32 50.24-119.68 54.72-160 12.48L444.16 512a125.76 125.76 0 0 1 12.16-171.2 32 32 0 0 0 0-45.12 32 32 0 0 0-45.44 0 189.44 189.44 0 0 0-12.16 259.52l155.52 162.24c66.88 69.76 180.48 64 252.8-12.8A189.44 189.44 0 0 0 818.24 448zM229.76 378.88a32 32 0 0 0 46.08-44.16l-55.68-58.24a125.76 125.76 0 0 1 12.16-171.2c48.32-50.24 119.68-54.72 160-12.48L547.84 256a125.76 125.76 0 0 1-12.16 171.2 32 32 0 0 0 0 45.12 32 32 0 0 0 45.44 0 189.44 189.44 0 0 0 12.16-259.52L437.76 50.56c-66.88-69.76-180.48-64-252.8 12.8A189.44 189.44 0 0 0 173.76 320z"  horiz-adv-x="1024" />
      
      <glyph glyph-name="weixuanzhong" unicode="&#59093;" d="M512.04516 47.965423999999985c185.584476 0 336.034576 150.450099 336.034575 336.034576S697.629636 720.034576 512.04516 720.034576 176.010584 569.584476 176.010584 384 326.460684 47.965423999999985 512.04516 47.965423999999985z m0-48.004939C299.951841-0.03951500000005126 128.005645 171.90668100000005 128.005645 384S299.951841 768.0395149999999 512.04516 768.0395149999999 896.084675 596.0933190000001 896.084675 384 724.138479-0.03951500000005126 512.04516-0.03951500000005126z"  horiz-adv-x="1024" />
      
      <glyph glyph-name="Time" unicode="&#58880;" d="M512.04516 47.965423999999985c185.584476 0 336.034576 150.450099 336.034575 336.034576S697.629636 720.034576 512.04516 720.034576 176.010584 569.584476 176.010584 384 326.460684 47.965423999999985 512.04516 47.965423999999985z m0-48.004939C299.951841-0.03951500000005126 128.005645 171.90668100000005 128.005645 384S299.951841 768.0395149999999 512.04516 768.0395149999999 896.084675 596.0933190000001 896.084675 384 724.138479-0.03951500000005126 512.04516-0.03951500000005126zM512.04516 384m-230.428225 0a230.428225 230.428225 0 1 1 460.85645 0 230.428225 230.428225 0 1 1-460.85645 0Z"  horiz-adv-x="1024" />
      
      <glyph glyph-name="jinggao" unicode="&#58890;" d="M967.84 145.306l-370.978 633.249c-51.188 87.428-134.588 87.428-185.778 0l-370.978-633.249c-51.188-87.428-10.353-158.172 90.874-158.172h745.983c101.807 0 142.64 70.741 90.874 158.172zM505.986 102.746c-28.762 0-51.766 23.006-51.766 51.766s23.006 51.766 51.766 51.766 51.766-23.006 51.766-51.766-23.006-51.766-51.766-51.766zM557.176 551.951l-11.502-240.993v-0.58c0-22.428-17.829-40.261-40.261-40.261s-40.261 17.829-40.261 40.261l-11.502 246.743v0.58c0 28.762 23.006 51.766 51.766 51.766s51.766-23.006 51.766-51.766c0.58-2.299 0.58-4.027 0-5.754z"  horiz-adv-x="1024" />
      
      <glyph glyph-name="icon" unicode="&#58908;" d="M460.541001 476.122117c-75.341942 15.891945-141.387148-1.520633-194.914248-57.371662-38.715767-40.39705899-56.489572-89.86675-53.368488-145.911184 6.339382-113.825418 105.85284-199.554942 216.689181-188.282201 122.714879 12.480242 208.61324801 132.0065 173.013449 255.221776 24.019043-6.291287 48.458665-12.692067 75.888388-19.875676 0.181125-17.82394701 1.191128-37.725206 0.233314-57.532321-0.458441-9.495258 2.171456-14.507412 10.317996-18.97005 14.71105-8.058536 28.827559-17.21815 43.065841-26.120914 12.777001-7.98997499 16.309454-18.390859 10.877745-32.342616-7.257288-18.642592-14.69263-37.216623-22.278399-55.728232-5.81033301-14.178931-15.911388-19.436678-30.889521-16.288988-17.682731 3.71562499-35.374672 7.41283-52.960189 11.549034-5.483898 1.290389-8.583492-0.174985-12.364609-4.315282-13.693884-14.996552-28.205389-29.244045-41.913599-44.227294-2.48868101-2.719948-4.332678-7.91834301-3.609201-11.37302499 3.89675-18.62315 8.803503-37.032428 13.148461-55.56552701 3.133364-13.365402-1.793856-23.636327-14.332427-29.201066-19.172665-8.508791-38.429241-16.842597-57.820893-24.836665-12.743232-5.252631-23.37026699-1.735527-31.05939 9.907651-10.145058 15.361873-20.162202 30.81482-29.868261 46.45605499-2.95019199 4.754281-6.03648299 5.898337-11.712763 5.64558001-20.919449-0.935302-41.892109-0.665149-62.821791-1.444908-3.000334-0.11154-6.930853-2.821255-8.641821-5.479805-9.957793-15.47853-19.297508-31.352055-29.008684-46.991244-8.98155899-14.46341-18.448164-17.488303-34.509978-11.121292-17.995863 7.13346801-35.976376 14.308891-53.886281 21.655206-14.875802 6.101975-19.751856 15.743566-16.368806 31.588439 3.706415 17.35834301 7.161097 34.777061 11.271718 52.039213 1.304715 5.478781 0.201591 8.534374-4.021593 12.398378-15.45806301 14.144138-30.650067 28.622898-45.184085 43.705408-4.176113 4.333702-7.581676 4.852518-12.613272 3.585665-16.892739-4.25593-33.821293-8.373715-50.747801-12.495592-17.619286-4.291746-27.15343 0.61296-34.420951 17.570167-7.119141 16.609283-14.308891 33.18889-21.398356 49.810453-7.299243 17.11275-4.333702 27.113521 10.996448 37.115316 14.337543 9.354042 28.573779 18.87795301 43.171242 27.809369 5.414313 3.312442 6.982018 6.898107 6.755868 13.26307201-0.732687 20.60427-0.286526 41.249473-0.89744 61.85988299-0.089028 2.993171-2.787486 6.965645-5.442966 8.653077-15.530718 9.872858-31.460526 19.114336-47.15088 28.73955501-13.957897 8.563026-17.175171 18.36323-11.121292 33.65654099 7.126304 18.003026 14.332427 35.975353 21.661346 53.896514 6.06001899 14.81952 16.010649 20.04042899 31.502481 16.739243 17.98869999-3.833305 35.909861-8.018627 53.989635-11.355629 3.184529-0.587378 7.955182 1.2689 10.367115 3.64604 14.69365399 14.481829 28.670993 29.692253 43.453674 44.077891 4.15360001 4.042059 4.955872 7.416923 3.62762 12.650111-4.601808 18.137079-9.05012 36.319184-13.131065 54.579059-3.01466 13.491269 2.104941 23.523763 14.68955999 29.074176 18.896372 8.332782 37.869492 16.501836 56.96438601 24.367991 13.365402 5.506411 23.837918 2.137687 31.851429-9.976212 10.335393-15.623839 20.114107-31.625278 30.78105-47.012733 2.00875-2.898003 7.057743-5.187139 10.709923-5.196349 18.379603-0.044002 36.760229 0.751107 55.140855 1.274016 4.573155 0.12996 7.575536-0.826831 9.107425-6.236028 6.049786-21.360494 12.744255-42.537815 19.15322199-63.798025C460.761012 478.77248 460.541001 477.795223 460.541001 476.122117zM515.054569 447.409169c2.310625 4.821819 3.673669 8.824993 5.955642 12.209066 6.67911999 9.905604 13.486152 19.745716 20.732184 29.237905 3.276626 4.29277 2.899026 7.53358 0.717338 12.19781-5.451152 11.659551-10.524704 23.547299-14.81645 35.674501-1.798972 5.082762-4.03285 7.129374-9.287527 7.79964-11.515265 1.468444-22.935362 3.685949-34.38615799 5.64251-11.92561 2.038426-16.943904 7.664563-17.07795701 19.584034-0.149403 13.24669901-0.137123 26.496467-0.00204699 39.744189 0.12279701 12.011568 4.987594 17.447371 17.06158399 19.48682001 11.772115 1.98828399 23.62711701 3.589758 35.273365 6.14904699 2.977821 0.654916 6.420223 3.77600001 7.732102 6.642281 5.623068 12.284791 10.79690399 24.798802 15.503089 37.464263 1.103124 2.96963501 0.948605 7.624654-0.689708 10.181897-6.613628 10.321066-14.130835 20.056801-21.128203 30.139437-6.67605 9.619078-6.119371 16.670681 2.062985 25.064862 9.246595 9.486048 18.631336 18.84316 28.117384 28.089755 8.373715 8.16291399 16.111956 8.601912 25.929556 1.696642 9.773598-6.874571 19.277042-14.161534 29.336142-20.583804 2.556219-1.63217301 7.192819-1.799996 10.148128-0.697895 12.664438 4.72460499 25.204032 9.861602 37.44789 15.579837 3.070942 1.434675 6.27389 5.270027 7.007601 8.541537 2.609431 11.631922 4.117784 23.50739 6.161327 35.270295 1.946328 11.200086 7.747451 16.22554299 19.148106 16.353456 13.24669901 0.149403 26.496467 0.122797 39.744189 0.010233 12.533454-0.105401 18.028609-5.001921 20.133549-17.561981 1.919722-11.45796 3.446495-23.00597 6.02318-34.31350301 0.729617-3.200902 3.977591-6.880711 7.023974-8.31231599 11.64727101-5.473665 23.563672-10.45205 35.656081-14.851243 3.172249-1.154289 8.111748-0.774643 10.921747 0.994654 10.097986 6.356778 19.571754 13.694907 29.394471 20.500916 10.383488 7.194866 16.995069 6.730285 25.791409-1.858324 9.477862-9.254781 18.87181301-18.599613 28.139897-28.065196 8.075933-8.247848 8.596795-15.35164001 1.86958-25.089421-6.791683-9.830903-14.166651-19.281135-20.518313-29.380144-1.736551-2.76088-1.915629-7.702426-0.740874-10.879792 4.572132-12.371772 9.667174-24.581861 15.281031-36.516682 1.442862-3.067872 5.169743-6.315846 8.404414-7.059789 11.617595-2.671852 23.503297-4.15053 35.231409-6.377244 12.522198-2.37713999 17.170055-7.92038999 17.308201-20.47124 0.14224-12.923334 0.122797-25.850761 0.00307-38.775118-0.107447-11.562337-4.663206-17.297968-15.97074-19.48682-11.399631-2.207271-22.88522001-3.996011-34.367739-5.740748-5.594415-0.850367-8.609075-3.077082-10.503215-9.123798-3.645017-11.640108-8.433066-23.016203-13.815657-33.977859-2.703575-5.506411-2.408863-9.171893 1.149173-13.839193 7.045463-9.241478 13.68979-18.798135 20.284999-28.371164 6.992251-10.148128 6.330172-16.884552-2.39863-25.764803-9.060353-9.216919-18.186198-18.373463-27.421536-27.414373-8.785084-8.60088901-15.653515-9.139148-25.814945-1.979074-9.504468 6.696516-18.956747 13.482059-28.181853 20.555152-4.050246 3.105734-7.108908 3.487428-12.044314 1.058099-11.534707-5.676279-23.538089-10.474562-35.594683-14.979156-4.803399-1.794879-7.258311-3.914146-7.918343-9.265014-1.381463-11.197016-3.53143-22.302959-5.489014-33.42425-2.475378-14.066367-8.109702-18.796088-22.246677-18.829857-11.632945-0.027629-23.264866-0.026606-34.897811-0.00409301-14.926968 0.02865301-20.063965 4.27742-22.762423 19.22383001-1.892093 10.478655-3.5345 21.00336-5.173836 31.526017-0.798179 5.123694-2.667759 8.086166-8.452509 9.934257-12.229532 3.908006-24.166399 8.977465-35.751249 14.553461-5.479805 2.63706-9.133008 2.446725-13.840216-1.178849-8.947789-6.891967-18.32946099-13.228279-27.613918-19.676132-9.912767-6.883781-17.609053-6.396687-25.948999 1.783623-9.457396 9.276271-18.96391 18.522865-27.967982 28.229948C519.598049 438.267974 517.640464 443.125609 515.054569 447.409169zM567.661717 589.503421c0.077771-76.071559 62.280462-138.672316 137.815809-138.697899 77.697593-0.026606 139.776464 62.078871 139.70585499 139.765207-0.068562 75.472925-62.764486 137.694035-138.81353199 137.76055C630.128421 728.397794 567.583946 665.799084 567.661717 589.503421zM274.40672 282.67529c-0.24457 75.054393 60.66670799 136.467091 135.730311 136.847761 74.874291 0.379647 136.592958-60.930721 136.714731-135.810129 0.12382-76.030627-60.238966-136.83138799-136.171356-137.161916C335.782579 146.22661800000003 274.652314 207.29036900000006 274.40672 282.67529z"  horiz-adv-x="1024" />
      
      <glyph glyph-name="fanhui" unicode="&#58985;" d="M475.591111 595.626667V720.782222c-11.377778 52.337778-54.613333 20.48-54.613333 20.48L120.604444 484.124444c-65.991111-45.511111-4.551111-79.644444-4.551111-79.644444l295.822223-254.862222c59.164444-43.235556 63.715556 22.755556 63.715555 22.755555v116.053334C775.964444 381.72444399999995 898.844444 8.53333299999997 898.844444 8.53333299999997c11.377778-20.48 18.204444 0 18.204445 0 116.053333 559.786667-441.457778 587.093333-441.457778 587.093334z"  horiz-adv-x="1024" />
      
      <glyph glyph-name="fanhui-copy" unicode="&#60074;" d="M475.591111 595.626667V720.782222c-11.377778 52.337778-54.613333 20.48-54.613333 20.48L120.604444 484.124444c-65.991111-45.511111-4.551111-79.644444-4.551111-79.644444l295.822223-254.862222c59.164444-43.235556 63.715556 22.755556 63.715555 22.755555v116.053334C775.964444 381.72444399999995 898.844444 8.53333299999997 898.844444 8.53333299999997c11.377778-20.48 18.204444 0 18.204445 0 116.053333 559.786667-441.457778 587.093333-441.457778 587.093334z"  horiz-adv-x="1024" />
      
      <glyph glyph-name="caidanzhankai" unicode="&#59176;" d="M104 832h815c22.091 0 40-17.909 40-40s-17.909-40-40-40H104c-22.091 0-40 17.909-40 40s17.909 40 40 40z m1-408h462c22.091 0 40-17.909 40-40s-17.909-40-40-40H105c-22.091 0-40 17.909-40 40s17.909 40 40 40z m0-408h815c22.091 0 40-17.909 40-40s-17.909-40-40-40H105c-22.091 0-40 17.909-40 40s17.909 40 40 40z m666.627 567.931l177.304-177.304c12.497-12.496 12.497-32.758 0-45.254L771.627 184.069c-12.496-12.497-32.758-12.497-45.254 0A32 32 0 0 0 717 206.696V561.304c0 17.673 14.327 32 32 32a32 32 0 0 0 22.627-9.373z"  horiz-adv-x="1024" />
      
      <glyph glyph-name="caidanzhankai-copy" unicode="&#60073;" d="M920-64l-815 0c-22.091 0-40 17.909-40 40.00000001s17.909 40 40 39.99999999L920 16c22.091 0 40-17.909 40-40s-17.909-40-40-40z m-1 408l-462 0c-22.091 0-40 17.909-40 40s17.909 40 40 40L919 424c22.091 0 40-17.909 40-40s-17.909-40-40-40z m0 408l-815 0c-22.091 0-40 17.909-40 40s17.909 40 40 40L919 832c22.091 0 40-17.909 40-40.00000001s-17.909-40-40-39.99999999z m-666.627-567.931l-177.304 177.304c-12.497 12.496-12.497 32.758 0 45.254L252.373 583.931c12.496 12.497 32.758 12.497 45.254 0A32 32 0 0 0 307 561.304L307 206.69600000000003c0-17.67299999-14.327-32-32-32a32 32 0 0 0-22.627 9.373z"  horiz-adv-x="1024" />
      
      <glyph glyph-name="xianshi" unicode="&#59059;" d="M895.887692 385.191128l-0.12382 0c-61.560054 158.704558-210.064296 270.734074-383.779733 270.734074-173.684738 0-322.204329-112.030539-383.764384-270.734074l-0.109494 0c0.01535-0.063445 0.030699-0.109494 0.062422-0.155543-0.031722-0.047072-0.047072-0.094144-0.062422-0.141216l0.109494 0c61.560054-159.946852 210.064296-272.818549 383.764384-272.818549 173.715437 0 322.219679 112.87272 383.779733 272.818549l0.12382 0c-0.030699 0.047072-0.046049 0.094144-0.062422 0.141216C895.841643 385.081635 895.856993 385.127683 895.887692 385.191128zM511.984139 166.715255c-144.458089 0-268.829701 89.348957-327.077314 218.320331 58.248635 128.009466 182.619224 216.703507 327.077314 216.703507 144.473439 0 268.844028-88.694041 327.108013-216.703507C780.828167 256.064212 656.457578 166.715255 511.984139 166.715255zM623.779318 448.079434c0-35.302017-28.647457-63.950498-63.981197-63.950498-35.349089 0-63.981197 28.64848-63.981197 63.950498s28.632107 63.949474 63.981197 63.949474c0.177032 0 0.352017-0.01228 0.529049-0.013303-15.042601 5.599532-31.324426 8.667404-48.327682 8.667404-76.258825 0-138.084938-61.576427-138.084938-137.553842 0-75.986625 61.826114-137.562029 138.084938-137.562029 76.259848 0 138.084938 61.575404 138.084938 137.562029 0 32.108279-11.04352 61.644989-29.550013 85.049025C622.629121 461.855182 623.779318 455.102385 623.779318 448.079434z"  horiz-adv-x="1024" />
      
      <glyph glyph-name="yincang" unicode="&#59057;" d="M895.887692 385.182942l-0.124843 0c-29.429263 75.876108-78.742389 141.076062-141.17737 188.484815l34.131355 30.912034c10.169617 9.215896 10.918677 24.899086 1.654686 35.036981l-3.435239 3.749394c-9.247618 10.137895-24.993231 10.887978-35.161824 1.671059l-44.488237-40.316218c-58.170864 32.661887-124.650975 51.204196-195.302081 51.204196-173.684738 0-322.204329-112.030539-383.764384-270.742261l-0.109494 0c0.016373-0.062422 0.031722-0.093121 0.062422-0.155543-0.030699-0.031722-0.046049-0.094144-0.062422-0.125867l0.109494 0c28.210505-73.291237 74.680886-136.709615 133.476991-183.884031l-41.565674-37.676088c-10.169617-9.216919-10.918677-24.899086-1.671059-35.021631l3.436262-3.780093c9.247618-10.122545 24.993231-10.871605 35.177174-1.655709l50.735521 45.986357c60.232826-36.145222 129.899512-56.795541 204.175169-56.795541 173.714414 0 322.218656 112.873744 383.77871 272.826735l0.124843 0c-0.030699 0.031722-0.046049 0.094144-0.062422 0.125867C895.841643 385.089821 895.856993 385.12052 895.887692 385.182942L895.887692 385.182942zM184.906825 385.027399c58.248635 128.017652 182.619224 216.71067 327.077314 216.71067 54.686507 0 106.46887-12.715603 152.892179-35.443233l-76.024487-68.870554c-21.963221 14.69877-48.4075 23.258727-76.853365 23.258727-76.258825 0-138.084938-61.575404-138.084938-137.561006 0-23.681352 5.998621-45.955658 16.588817-65.418942l-88.427982-80.101339C252.10632 275.24711 211.586464 325.982632 184.906825 385.027399L184.906825 385.027399zM595.241354 383.12098c0-45.768393-37.286208-82.913385-83.241866-82.913385-16.511046 0-31.896454 4.779863-44.831045 13.059434l118.903064 107.718327C591.945285 409.645077 595.241354 396.773931 595.241354 383.12098L595.241354 383.12098zM428.773995 383.12098c0 45.807279 37.254485 82.936921 83.225493 82.936921 12.184507 0 23.759123-2.608407 34.193777-7.29515L433.210028 356.409618C430.33556 364.783333 428.773995 373.780241 428.773995 383.12098L428.773995 383.12098zM511.984139 166.715255c-58.280358 0-113.279996 14.558577-162.000628 40.36329l75.759451 68.636217c23.617907-18.869766 53.609988-30.147624 86.256526-30.147624 76.258825 0 138.084938 61.575404 138.084938 137.553842 0 27.835975-8.31027 53.741995-22.586414 75.407434l86.661755 78.493725c53.532217-37.879726 96.878444-90.3651 124.933407-151.99474C780.828167 256.064212 656.457578 166.715255 511.984139 166.715255L511.984139 166.715255zM511.984139 166.715255"  horiz-adv-x="1024" />
      
      <glyph glyph-name="lixian" unicode="&#59270;" d="M744.066403 493.933785l133.080971 64.10297 44.36237-45.328371-133.087111-64.10911L744.066403 493.933785zM655.353942 584.602807l177.443341 181.325765 44.350091-45.328371L699.704033 539.262156 655.353942 584.602807zM566.636365 675.25955l62.727647 136.016837 44.36851-45.347814-62.753229-135.997394L566.636365 675.25955zM633.918747 111.368716l35.18229-42.852994c25.440415-25.926486 66.476017-25.798573 91.711771 0.352017l68.849064 70.826092c25.235754 26.086122 25.037233 68.529793-0.37146 94.328365l-35.260062 42.865273c-18.007119 18.333554-43.933605 27.711132-66.578348 19.887956l-71.433936 73.960479c50.560536 52.185546 132.837424 52.42193 183.596482 0.594541l81.34261-89.8821c50.823526-51.935859 51.072189-136.343271 0.531096-188.593286L807.069319-25.460626C756.585531-77.525422 674.352645-77.82525 623.453395-25.946696l-81.317027 89.889263c-50.759057 52.000328-50.989301 136.343271-0.588401 188.522678l71.65804-72.496128C607.333252 157.669228 616.730273 128.927627 633.918747 111.368716zM411.68427 591.601198c7.228635 22.785959-1.63729 48.885384-19.280112 66.910922l-26.444279 43.358507c-25.113981 25.497721-65.420989 25.37697-90.182952-0.306992l-67.449181-69.668733c-24.794709-25.670659-24.685215-66.969251 0.261966-92.524277l26.444279-43.428092 52.863998-37.485753c16.765849-17.086144-8.546653 11.034311 12.800537 17.047258l69.75162-71.606875c-49.621141-51.284013-130.297578-51.514257-180.231851-0.537236l-71.606875 89.479941c-50.01716 50.977022-50.215682 133.822868-0.556679 185.036273L230.358505 794.101215c49.710169 51.16224 130.451074 51.520397 180.264597 0.601704l71.792093-89.651856c49.863664-50.861388 50.036603-133.829008 0.460488-184.997388L411.68427 591.601198zM242.205321 275.045519l-133.080971-64.10911-44.36237 45.334511 133.087111 64.10911L242.205321 275.045519zM330.917782 196.056514 153.48058 14.711306l-44.35623 45.328371 177.443341 181.345208L330.917782 196.056514zM419.635359 105.381351l-59.58098-136.003534-44.342927 45.334511 59.548234 136.010697L419.635359 105.381351z"  horiz-adv-x="1024" />
      
      </font>
</defs>
</svg>
